<svg width="444" height="34" viewBox="0 0 444 34" fill="none" xmlns="http://www.w3.org/2000/svg">
<path d="M1.672 26.9999C1.432 26.9999 1.228 26.9159 1.06 26.7479C0.892 26.5799 0.808 26.3759 0.808 26.1359V2.69994C0.808 2.43594 0.88 2.21994 1.024 2.05194C1.192 1.88394 1.408 1.79994 1.672 1.79994H10.456C17.512 1.79994 21.112 5.06394 21.256 11.5919C21.304 12.9839 21.328 13.9199 21.328 14.3999C21.328 14.8559 21.304 15.7799 21.256 17.1719C21.16 20.5319 20.26 23.0159 18.556 24.6239C16.852 26.2079 14.212 26.9999 10.636 26.9999H1.672ZM10.456 22.8599C12.472 22.8599 13.924 22.4159 14.812 21.5279C15.7 20.6159 16.168 19.1279 16.216 17.0639C16.264 15.6239 16.288 14.7239 16.288 14.3639C16.288 13.9799 16.264 13.0919 16.216 11.6999C16.168 9.73194 15.664 8.27994 14.704 7.34394C13.768 6.40794 12.292 5.93994 10.276 5.93994H5.812V22.8599H10.456ZM33.9685 27.3599C31.1605 27.3599 28.9885 26.6399 27.4525 25.1999C25.9165 23.7359 25.0885 21.7439 24.9685 19.2239L24.9325 17.6399L24.9685 16.0559C25.0885 13.5599 25.9285 11.5799 27.4885 10.1159C29.0485 8.65194 31.2085 7.91994 33.9685 7.91994C36.7285 7.91994 38.8885 8.65194 40.4485 10.1159C42.0085 11.5799 42.8485 13.5599 42.9685 16.0559C42.9925 16.3439 43.0045 16.8719 43.0045 17.6399C43.0045 18.4079 42.9925 18.9359 42.9685 19.2239C42.8485 21.7439 42.0205 23.7359 40.4845 25.1999C38.9485 26.6399 36.7765 27.3599 33.9685 27.3599ZM33.9685 23.7959C35.2405 23.7959 36.2245 23.3999 36.9205 22.6079C37.6165 21.7919 38.0005 20.6039 38.0725 19.0439C38.0965 18.8039 38.1085 18.3359 38.1085 17.6399C38.1085 16.9439 38.0965 16.4759 38.0725 16.2359C38.0005 14.6759 37.6165 13.4999 36.9205 12.7079C36.2245 11.8919 35.2405 11.4839 33.9685 11.4839C32.6965 11.4839 31.7125 11.8919 31.0165 12.7079C30.3205 13.4999 29.9365 14.6759 29.8645 16.2359L29.8285 17.6399L29.8645 19.0439C29.9365 20.6039 30.3205 21.7919 31.0165 22.6079C31.7125 23.3999 32.6965 23.7959 33.9685 23.7959ZM51.5778 26.9999C51.2658 26.9999 51.0138 26.9279 50.8218 26.7839C50.6538 26.6159 50.5098 26.3879 50.3898 26.0999L45.2418 9.39594C45.2178 9.32394 45.2058 9.21594 45.2058 9.07194C45.2058 8.85594 45.2778 8.67594 45.4218 8.53194C45.5898 8.36394 45.7698 8.27994 45.9618 8.27994H48.6258C48.8898 8.27994 49.1058 8.35194 49.2738 8.49594C49.4418 8.63994 49.5498 8.79594 49.5978 8.96394L53.1258 20.8799L56.8698 9.07194C56.9418 8.85594 57.0618 8.67594 57.2298 8.53194C57.4218 8.36394 57.6618 8.27994 57.9498 8.27994H59.7498C60.0378 8.27994 60.2658 8.36394 60.4338 8.53194C60.6258 8.67594 60.7578 8.85594 60.8298 9.07194L64.5738 20.8799L68.1018 8.96394C68.1258 8.79594 68.2218 8.63994 68.3898 8.49594C68.5818 8.35194 68.7978 8.27994 69.0378 8.27994H71.7018C71.9178 8.27994 72.0978 8.36394 72.2418 8.53194C72.4098 8.67594 72.4938 8.85594 72.4938 9.07194L72.4218 9.39594L67.2738 26.0999C67.1778 26.3879 67.0338 26.6159 66.8418 26.7839C66.6738 26.9279 66.4338 26.9999 66.1218 26.9999H63.7818C63.1578 26.9999 62.7618 26.6999 62.5938 26.0999L58.8498 14.7239L55.1058 26.0999C54.9138 26.6999 54.5058 26.9999 53.8818 26.9999H51.5778ZM76.8611 26.9999C76.6211 26.9999 76.4171 26.9159 76.2491 26.7479C76.0811 26.5799 75.9971 26.3759 75.9971 26.1359V9.14394C75.9971 8.90394 76.0811 8.69994 76.2491 8.53194C76.4171 8.36394 76.6211 8.27994 76.8611 8.27994H79.8131C80.0531 8.27994 80.2571 8.36394 80.4251 8.53194C80.5931 8.69994 80.6771 8.90394 80.6771 9.14394V10.6199C82.0931 8.81994 84.0971 7.91994 86.6891 7.91994C88.8971 7.91994 90.6491 8.65194 91.9451 10.1159C93.2411 11.5559 93.8891 13.5239 93.8891 16.0199V26.1359C93.8891 26.3759 93.8051 26.5799 93.6371 26.7479C93.4931 26.9159 93.2891 26.9999 93.0251 26.9999H89.8571C89.6171 26.9999 89.4131 26.9159 89.2451 26.7479C89.0771 26.5799 88.9931 26.3759 88.9931 26.1359V16.2359C88.9931 14.8199 88.6451 13.7279 87.9491 12.9599C87.2771 12.1679 86.2931 11.7719 84.9971 11.7719C83.7251 11.7719 82.7171 12.1679 81.9731 12.9599C81.2531 13.7519 80.8931 14.8439 80.8931 16.2359V26.1359C80.8931 26.3759 80.8091 26.5799 80.6411 26.7479C80.4971 26.9159 80.2931 26.9999 80.0291 26.9999H76.8611ZM99.3619 26.9999C99.1219 26.9999 98.9179 26.9159 98.7499 26.7479C98.5819 26.5799 98.4979 26.3759 98.4979 26.1359V2.30394C98.4979 2.03994 98.5819 1.83594 98.7499 1.69194C98.9179 1.52394 99.1219 1.43994 99.3619 1.43994H102.35C102.614 1.43994 102.818 1.52394 102.962 1.69194C103.13 1.83594 103.214 2.03994 103.214 2.30394V26.1359C103.214 26.3759 103.13 26.5799 102.962 26.7479C102.818 26.9159 102.614 26.9999 102.35 26.9999H99.3619ZM116.269 27.3599C113.461 27.3599 111.289 26.6399 109.753 25.1999C108.217 23.7359 107.389 21.7439 107.269 19.2239L107.233 17.6399L107.269 16.0559C107.389 13.5599 108.229 11.5799 109.789 10.1159C111.349 8.65194 113.509 7.91994 116.269 7.91994C119.029 7.91994 121.189 8.65194 122.749 10.1159C124.309 11.5799 125.149 13.5599 125.269 16.0559C125.293 16.3439 125.305 16.8719 125.305 17.6399C125.305 18.4079 125.293 18.9359 125.269 19.2239C125.149 21.7439 124.321 23.7359 122.785 25.1999C121.249 26.6399 119.077 27.3599 116.269 27.3599ZM116.269 23.7959C117.541 23.7959 118.525 23.3999 119.221 22.6079C119.917 21.7919 120.301 20.6039 120.373 19.0439C120.397 18.8039 120.409 18.3359 120.409 17.6399C120.409 16.9439 120.397 16.4759 120.373 16.2359C120.301 14.6759 119.917 13.4999 119.221 12.7079C118.525 11.8919 117.541 11.4839 116.269 11.4839C114.997 11.4839 114.013 11.8919 113.317 12.7079C112.621 13.4999 112.237 14.6759 112.165 16.2359L112.129 17.6399L112.165 19.0439C112.237 20.6039 112.621 21.7919 113.317 22.6079C114.013 23.3999 114.997 23.7959 116.269 23.7959ZM134.73 27.3599C133.506 27.3599 132.378 27.1199 131.346 26.6399C130.338 26.1359 129.534 25.4639 128.934 24.6239C128.358 23.7839 128.07 22.8599 128.07 21.8519C128.07 20.2199 128.73 18.8999 130.05 17.8919C131.37 16.8839 133.182 16.1999 135.486 15.8399L140.418 15.1199V14.3639C140.418 13.3079 140.154 12.5159 139.626 11.9879C139.098 11.4599 138.246 11.1959 137.07 11.1959C136.278 11.1959 135.63 11.3519 135.126 11.6639C134.646 11.9519 134.262 12.2399 133.974 12.5279C133.686 12.8399 133.494 13.0439 133.398 13.1399C133.302 13.4279 133.122 13.5719 132.858 13.5719H130.086C129.87 13.5719 129.678 13.4999 129.51 13.3559C129.366 13.2119 129.294 13.0199 129.294 12.7799C129.318 12.1799 129.606 11.4959 130.158 10.7279C130.734 9.95994 131.61 9.29994 132.786 8.74794C133.962 8.19594 135.402 7.91994 137.106 7.91994C139.938 7.91994 142.002 8.55594 143.298 9.82794C144.594 11.0999 145.242 12.7679 145.242 14.8319V26.1359C145.242 26.3759 145.158 26.5799 144.99 26.7479C144.846 26.9159 144.642 26.9999 144.378 26.9999H141.462C141.222 26.9999 141.018 26.9159 140.85 26.7479C140.682 26.5799 140.598 26.3759 140.598 26.1359V24.7319C140.07 25.4999 139.314 26.1359 138.33 26.6399C137.37 27.1199 136.17 27.3599 134.73 27.3599ZM135.954 23.9399C137.274 23.9399 138.354 23.5079 139.194 22.6439C140.034 21.7799 140.454 20.5199 140.454 18.8639V18.1079L136.854 18.6839C135.462 18.8999 134.406 19.2479 133.686 19.7279C132.99 20.2079 132.642 20.7959 132.642 21.4919C132.642 22.2599 132.966 22.8599 133.614 23.2919C134.262 23.7239 135.042 23.9399 135.954 23.9399ZM156.808 27.3599C154.384 27.3599 152.524 26.5799 151.228 25.0199C149.932 23.4599 149.236 21.3839 149.14 18.7919L149.104 17.6039L149.14 16.4519C149.212 13.9319 149.896 11.8799 151.192 10.2959C152.512 8.71194 154.384 7.91994 156.808 7.91994C159.136 7.91994 160.984 8.71194 162.352 10.2959V2.30394C162.352 2.03994 162.436 1.83594 162.604 1.69194C162.772 1.52394 162.976 1.43994 163.216 1.43994H166.276C166.54 1.43994 166.744 1.52394 166.888 1.69194C167.056 1.83594 167.14 2.03994 167.14 2.30394V26.1359C167.14 26.3759 167.056 26.5799 166.888 26.7479C166.744 26.9159 166.54 26.9999 166.276 26.9999H163.432C163.192 26.9999 162.988 26.9159 162.82 26.7479C162.652 26.5799 162.568 26.3759 162.568 26.1359V24.8039C161.2 26.5079 159.28 27.3599 156.808 27.3599ZM158.14 23.5079C159.532 23.5079 160.564 23.0639 161.236 22.1759C161.908 21.2879 162.28 20.1959 162.352 18.8999C162.376 18.6119 162.388 18.1439 162.388 17.4959C162.388 16.8719 162.376 16.4159 162.352 16.1279C162.304 14.9279 161.92 13.9079 161.2 13.0679C160.504 12.2039 159.484 11.7719 158.14 11.7719C155.548 11.7719 154.168 13.3679 154 16.5599L153.964 17.6399L154 18.7199C154.168 21.9119 155.548 23.5079 158.14 23.5079ZM198.508 27.3599C195.244 27.3599 192.7 26.5319 190.876 24.8759C189.052 23.2199 188.092 20.7599 187.996 17.4959C187.972 16.7999 187.96 15.7799 187.96 14.4359C187.96 13.0679 187.972 12.0359 187.996 11.3399C188.092 8.14794 189.076 5.69994 190.948 3.99594C192.82 2.29194 195.34 1.43994 198.508 1.43994C201.676 1.43994 204.196 2.29194 206.068 3.99594C207.964 5.69994 208.96 8.14794 209.056 11.3399C209.104 12.7319 209.128 13.7639 209.128 14.4359C209.128 15.0839 209.104 16.1039 209.056 17.4959C208.936 20.7599 207.964 23.2199 206.14 24.8759C204.316 26.5319 201.772 27.3599 198.508 27.3599ZM198.508 23.2199C200.116 23.2199 201.4 22.7399 202.36 21.7799C203.32 20.7959 203.836 19.3079 203.908 17.3159C203.956 15.8759 203.98 14.9039 203.98 14.3999C203.98 13.8479 203.956 12.8759 203.908 11.4839C203.836 9.49194 203.32 8.01594 202.36 7.05594C201.4 6.07194 200.116 5.57994 198.508 5.57994C196.924 5.57994 195.652 6.07194 194.692 7.05594C193.732 8.01594 193.216 9.49194 193.144 11.4839C193.12 12.1799 193.108 13.1519 193.108 14.3999C193.108 15.6239 193.12 16.5959 193.144 17.3159C193.216 19.3079 193.72 20.7959 194.656 21.7799C195.616 22.7399 196.9 23.2199 198.508 23.2199ZM220.371 27.3599C218.163 27.3599 216.423 26.6399 215.151 25.1999C213.879 23.7359 213.243 21.7559 213.243 19.2599V9.14394C213.243 8.90394 213.327 8.69994 213.495 8.53194C213.663 8.36394 213.867 8.27994 214.107 8.27994H217.275C217.539 8.27994 217.743 8.36394 217.887 8.53194C218.055 8.67594 218.139 8.87994 218.139 9.14394V19.0439C218.139 22.0199 219.447 23.5079 222.063 23.5079C223.311 23.5079 224.295 23.1119 225.015 22.3199C225.759 21.5279 226.131 20.4359 226.131 19.0439V9.14394C226.131 8.90394 226.215 8.69994 226.383 8.53194C226.551 8.36394 226.755 8.27994 226.995 8.27994H230.163C230.427 8.27994 230.631 8.36394 230.775 8.53194C230.943 8.67594 231.027 8.87994 231.027 9.14394V26.1359C231.027 26.3759 230.943 26.5799 230.775 26.7479C230.631 26.9159 230.427 26.9999 230.163 26.9999H227.247C227.007 26.9999 226.803 26.9159 226.635 26.7479C226.467 26.5799 226.383 26.3759 226.383 26.1359V24.6599C225.039 26.4599 223.035 27.3599 220.371 27.3599ZM236.646 26.9999C236.406 26.9999 236.202 26.9159 236.034 26.7479C235.866 26.5799 235.782 26.3759 235.782 26.1359V9.17994C235.782 8.93994 235.866 8.73594 236.034 8.56794C236.202 8.37594 236.406 8.27994 236.646 8.27994H239.562C239.826 8.27994 240.042 8.36394 240.21 8.53194C240.378 8.69994 240.462 8.91594 240.462 9.17994V10.6559C241.038 9.88794 241.758 9.29994 242.622 8.89194C243.51 8.48394 244.518 8.27994 245.646 8.27994H247.122C247.386 8.27994 247.59 8.36394 247.734 8.53194C247.902 8.67594 247.986 8.87994 247.986 9.14394V11.7359C247.986 11.9759 247.902 12.1799 247.734 12.3479C247.59 12.5159 247.386 12.5999 247.122 12.5999H244.314C243.186 12.5999 242.298 12.9239 241.65 13.5719C241.002 14.2199 240.678 15.1079 240.678 16.2359V26.1359C240.678 26.3759 240.594 26.5799 240.426 26.7479C240.258 26.9159 240.042 26.9999 239.778 26.9999H236.646Z" fill="#363853"/>
<path d="M259.579 26.9999C259.315 26.9999 259.099 26.9279 258.931 26.7839C258.763 26.6159 258.679 26.3999 258.679 26.1359V2.69994C258.679 2.43594 258.763 2.21994 258.931 2.05194C259.099 1.88394 259.315 1.79994 259.579 1.79994H262.423C262.927 1.79994 263.287 2.02794 263.503 2.48394L270.451 15.4439L277.471 2.48394C277.711 2.02794 278.071 1.79994 278.551 1.79994H281.359C281.623 1.79994 281.839 1.88394 282.007 2.05194C282.175 2.21994 282.259 2.43594 282.259 2.69994V26.1359C282.259 26.3999 282.175 26.6159 282.007 26.7839C281.839 26.9279 281.623 26.9999 281.359 26.9999H278.335C278.095 26.9999 277.891 26.9159 277.723 26.7479C277.555 26.5799 277.471 26.3759 277.471 26.1359V10.5479L272.431 20.1599C272.119 20.6879 271.711 20.9519 271.207 20.9519H269.731C269.227 20.9519 268.819 20.6879 268.507 20.1599L263.467 10.5479V26.1359C263.467 26.3759 263.383 26.5799 263.215 26.7479C263.071 26.9159 262.867 26.9999 262.603 26.9999H259.579ZM295.707 27.3599C292.899 27.3599 290.727 26.6399 289.191 25.1999C287.655 23.7359 286.827 21.7439 286.707 19.2239L286.671 17.6399L286.707 16.0559C286.827 13.5599 287.667 11.5799 289.227 10.1159C290.787 8.65194 292.947 7.91994 295.707 7.91994C298.467 7.91994 300.627 8.65194 302.187 10.1159C303.747 11.5799 304.587 13.5599 304.707 16.0559C304.731 16.3439 304.743 16.8719 304.743 17.6399C304.743 18.4079 304.731 18.9359 304.707 19.2239C304.587 21.7439 303.759 23.7359 302.223 25.1999C300.687 26.6399 298.515 27.3599 295.707 27.3599ZM295.707 23.7959C296.979 23.7959 297.963 23.3999 298.659 22.6079C299.355 21.7919 299.739 20.6039 299.811 19.0439C299.835 18.8039 299.847 18.3359 299.847 17.6399C299.847 16.9439 299.835 16.4759 299.811 16.2359C299.739 14.6759 299.355 13.4999 298.659 12.7079C297.963 11.8919 296.979 11.4839 295.707 11.4839C294.435 11.4839 293.451 11.8919 292.755 12.7079C292.059 13.4999 291.675 14.6759 291.603 16.2359L291.567 17.6399L291.603 19.0439C291.675 20.6039 292.059 21.7919 292.755 22.6079C293.451 23.3999 294.435 23.7959 295.707 23.7959ZM319.099 27.3599C316.627 27.3599 314.707 26.5079 313.339 24.8039V26.1359C313.339 26.3759 313.255 26.5799 313.087 26.7479C312.943 26.9159 312.739 26.9999 312.475 26.9999H309.631C309.391 26.9999 309.187 26.9159 309.019 26.7479C308.851 26.5799 308.767 26.3759 308.767 26.1359V2.30394C308.767 2.03994 308.851 1.83594 309.019 1.69194C309.187 1.52394 309.391 1.43994 309.631 1.43994H312.691C312.955 1.43994 313.159 1.52394 313.303 1.69194C313.471 1.83594 313.555 2.03994 313.555 2.30394V10.2959C314.923 8.71194 316.771 7.91994 319.099 7.91994C321.523 7.91994 323.383 8.71194 324.679 10.2959C325.975 11.8799 326.671 13.9319 326.767 16.4519C326.791 16.7399 326.803 17.1239 326.803 17.6039C326.803 18.1079 326.791 18.5039 326.767 18.7919C326.671 21.3839 325.975 23.4599 324.679 25.0199C323.383 26.5799 321.523 27.3599 319.099 27.3599ZM317.767 23.5079C320.359 23.5079 321.739 21.9119 321.907 18.7199C321.931 18.4799 321.943 18.1199 321.943 17.6399C321.943 17.1599 321.931 16.7999 321.907 16.5599C321.739 13.3679 320.359 11.7719 317.767 11.7719C316.423 11.7719 315.391 12.2039 314.671 13.0679C313.975 13.9079 313.603 14.9279 313.555 16.1279L313.519 17.4959L313.555 18.8999C313.627 20.1959 313.999 21.2879 314.671 22.1759C315.343 23.0639 316.375 23.5079 317.767 23.5079ZM331.53 5.18394C331.29 5.18394 331.086 5.09994 330.918 4.93194C330.75 4.76394 330.666 4.55994 330.666 4.31994V1.72794C330.666 1.48794 330.75 1.28394 330.918 1.11594C331.086 0.947938 331.29 0.863939 331.53 0.863939H334.806C335.046 0.863939 335.25 0.947938 335.418 1.11594C335.61 1.28394 335.706 1.48794 335.706 1.72794V4.31994C335.706 4.55994 335.622 4.76394 335.454 4.93194C335.286 5.09994 335.07 5.18394 334.806 5.18394H331.53ZM331.674 26.9999C331.434 26.9999 331.23 26.9159 331.062 26.7479C330.894 26.5799 330.81 26.3759 330.81 26.1359V9.14394C330.81 8.90394 330.894 8.69994 331.062 8.53194C331.23 8.36394 331.434 8.27994 331.674 8.27994H334.662C334.926 8.27994 335.13 8.36394 335.274 8.53194C335.442 8.67594 335.526 8.87994 335.526 9.14394V26.1359C335.526 26.3759 335.442 26.5799 335.274 26.7479C335.13 26.9159 334.926 26.9999 334.662 26.9999H331.674ZM341.202 26.9999C340.962 26.9999 340.758 26.9159 340.59 26.7479C340.422 26.5799 340.338 26.3759 340.338 26.1359V2.30394C340.338 2.03994 340.422 1.83594 340.59 1.69194C340.758 1.52394 340.962 1.43994 341.202 1.43994H344.19C344.454 1.43994 344.658 1.52394 344.802 1.69194C344.97 1.83594 345.054 2.03994 345.054 2.30394V26.1359C345.054 26.3759 344.97 26.5799 344.802 26.7479C344.658 26.9159 344.454 26.9999 344.19 26.9999H341.202ZM357.893 27.3599C355.229 27.3599 353.105 26.5919 351.521 25.0559C349.961 23.4959 349.133 21.3119 349.037 18.5039L349.001 17.6039L349.037 16.7039C349.157 13.9679 349.997 11.8199 351.557 10.2599C353.141 8.69994 355.253 7.91994 357.893 7.91994C360.725 7.91994 362.909 8.78394 364.445 10.5119C366.005 12.2399 366.785 14.5439 366.785 17.4239V18.1799C366.785 18.4199 366.701 18.6239 366.533 18.7919C366.365 18.9599 366.149 19.0439 365.885 19.0439H353.933V19.3319C353.981 20.6519 354.341 21.7679 355.013 22.6799C355.709 23.5679 356.657 24.0119 357.857 24.0119C359.273 24.0119 360.413 23.4599 361.277 22.3559C361.493 22.0919 361.661 21.9239 361.781 21.8519C361.925 21.7799 362.129 21.7439 362.393 21.7439H365.489C365.705 21.7439 365.885 21.8159 366.029 21.9599C366.197 22.0799 366.281 22.2359 366.281 22.4279C366.281 23.0039 365.933 23.6879 365.237 24.4799C364.565 25.2479 363.593 25.9199 362.321 26.4959C361.049 27.0719 359.573 27.3599 357.893 27.3599ZM361.889 16.0199V15.9119C361.889 14.4959 361.529 13.3559 360.809 12.4919C360.113 11.6279 359.141 11.1959 357.893 11.1959C356.645 11.1959 355.673 11.6279 354.977 12.4919C354.281 13.3559 353.933 14.4959 353.933 15.9119V16.0199H361.889ZM376.768 26.9999C376.576 26.9999 376.396 26.9279 376.228 26.7839C376.084 26.6399 376.012 26.4599 376.012 26.2439L376.084 25.9199L384.76 2.69994C384.928 2.09994 385.348 1.79994 386.02 1.79994H389.944C390.568 1.79994 390.988 2.09994 391.204 2.69994L399.88 25.9199C399.904 25.9919 399.916 26.0999 399.916 26.2439C399.916 26.4599 399.844 26.6399 399.7 26.7839C399.556 26.9279 399.388 26.9999 399.196 26.9999H396.064C395.752 26.9999 395.512 26.9279 395.344 26.7839C395.176 26.6399 395.068 26.4839 395.02 26.3159L393.328 21.9239H382.636L380.944 26.3159C380.752 26.7719 380.404 26.9999 379.9 26.9999H376.768ZM392.068 17.7839L387.964 6.65994L383.896 17.7839H392.068ZM403.745 33.8399C403.505 33.8399 403.301 33.7559 403.133 33.5879C402.965 33.4439 402.881 33.2399 402.881 32.9759V9.14394C402.881 8.87994 402.965 8.67594 403.133 8.53194C403.301 8.36394 403.505 8.27994 403.745 8.27994H406.589C406.853 8.27994 407.057 8.36394 407.201 8.53194C407.369 8.67594 407.453 8.87994 407.453 9.14394V10.5839C408.797 8.80794 410.717 7.91994 413.213 7.91994C415.637 7.91994 417.497 8.68794 418.793 10.2239C420.089 11.7359 420.785 13.7879 420.881 16.3799C420.905 16.6679 420.917 17.0879 420.917 17.6399C420.917 18.2159 420.905 18.6479 420.881 18.9359C420.785 21.4559 420.089 23.4959 418.793 25.0559C417.497 26.5919 415.637 27.3599 413.213 27.3599C410.789 27.3599 408.941 26.5079 407.669 24.8039V32.9759C407.669 33.2399 407.585 33.4439 407.417 33.5879C407.273 33.7559 407.069 33.8399 406.805 33.8399H403.745ZM411.881 23.5079C414.473 23.5079 415.853 21.9119 416.021 18.7199C416.045 18.4799 416.057 18.1199 416.057 17.6399C416.057 17.1599 416.045 16.7999 416.021 16.5599C415.853 13.3679 414.473 11.7719 411.881 11.7719C410.489 11.7719 409.457 12.2159 408.785 13.1039C408.113 13.9919 407.741 15.0839 407.669 16.3799L407.633 17.7479L407.669 19.1519C407.717 20.3519 408.089 21.3839 408.785 22.2479C409.505 23.0879 410.537 23.5079 411.881 23.5079ZM425.858 33.8399C425.618 33.8399 425.414 33.7559 425.246 33.5879C425.078 33.4439 424.994 33.2399 424.994 32.9759V9.14394C424.994 8.87994 425.078 8.67594 425.246 8.53194C425.414 8.36394 425.618 8.27994 425.858 8.27994H428.702C428.966 8.27994 429.17 8.36394 429.314 8.53194C429.482 8.67594 429.566 8.87994 429.566 9.14394V10.5839C430.91 8.80794 432.83 7.91994 435.326 7.91994C437.75 7.91994 439.61 8.68794 440.906 10.2239C442.202 11.7359 442.898 13.7879 442.994 16.3799C443.018 16.6679 443.03 17.0879 443.03 17.6399C443.03 18.2159 443.018 18.6479 442.994 18.9359C442.898 21.4559 442.202 23.4959 440.906 25.0559C439.61 26.5919 437.75 27.3599 435.326 27.3599C432.902 27.3599 431.054 26.5079 429.782 24.8039V32.9759C429.782 33.2399 429.698 33.4439 429.53 33.5879C429.386 33.7559 429.182 33.8399 428.918 33.8399H425.858ZM433.994 23.5079C436.586 23.5079 437.966 21.9119 438.134 18.7199C438.158 18.4799 438.17 18.1199 438.17 17.6399C438.17 17.1599 438.158 16.7999 438.134 16.5599C437.966 13.3679 436.586 11.7719 433.994 11.7719C432.602 11.7719 431.57 12.2159 430.898 13.1039C430.226 13.9919 429.854 15.0839 429.782 16.3799L429.746 17.7479L429.782 19.1519C429.83 20.3519 430.202 21.3839 430.898 22.2479C431.618 23.0879 432.65 23.5079 433.994 23.5079Z" fill="#FF7A50"/>
</svg>
