<svg width="367" height="78" viewBox="0 0 367 78" fill="none" xmlns="http://www.w3.org/2000/svg">
<path d="M10.556 27.36C8.42 27.36 6.584 27.036 5.048 26.388C3.512 25.74 2.348 24.888 1.556 23.832C0.764 22.776 0.344 21.636 0.296 20.412C0.296 20.196 0.368 20.016 0.512 19.872C0.656 19.728 0.836 19.656 1.052 19.656H4.256C4.544 19.656 4.76 19.716 4.904 19.836C5.072 19.932 5.228 20.1 5.372 20.34C5.612 21.156 6.164 21.84 7.028 22.392C7.892 22.944 9.068 23.22 10.556 23.22C12.26 23.22 13.544 22.944 14.408 22.392C15.272 21.816 15.704 21.024 15.704 20.016C15.704 19.344 15.476 18.792 15.02 18.36C14.588 17.928 13.928 17.556 13.04 17.244C12.176 16.932 10.88 16.548 9.152 16.092C6.32 15.42 4.244 14.532 2.924 13.428C1.628 12.3 0.98 10.704 0.98 8.64C0.98 7.248 1.352 6.012 2.096 4.932C2.864 3.852 3.956 3 5.372 2.376C6.812 1.752 8.48 1.44 10.376 1.44C12.344 1.44 14.048 1.788 15.488 2.484C16.928 3.18 18.02 4.056 18.764 5.112C19.532 6.144 19.94 7.176 19.988 8.208C19.988 8.424 19.916 8.604 19.772 8.748C19.628 8.892 19.448 8.964 19.232 8.964H15.884C15.38 8.964 15.032 8.736 14.84 8.28C14.696 7.512 14.216 6.876 13.4 6.372C12.584 5.844 11.576 5.58 10.376 5.58C9.032 5.58 7.976 5.832 7.208 6.336C6.44 6.84 6.056 7.572 6.056 8.532C6.056 9.204 6.248 9.756 6.632 10.188C7.016 10.62 7.616 11.004 8.432 11.34C9.272 11.676 10.472 12.048 12.032 12.456C14.144 12.936 15.824 13.476 17.072 14.076C18.344 14.676 19.28 15.432 19.88 16.344C20.48 17.256 20.78 18.42 20.78 19.836C20.78 21.372 20.348 22.716 19.484 23.868C18.644 24.996 17.444 25.86 15.884 26.46C14.348 27.06 12.572 27.36 10.556 27.36ZM32.9337 27C30.7497 27 29.1057 26.436 28.0017 25.308C26.9217 24.156 26.3817 22.476 26.3817 20.268V12.096H23.5377C23.2977 12.096 23.0937 12.012 22.9257 11.844C22.7577 11.652 22.6737 11.436 22.6737 11.196V9.144C22.6737 8.904 22.7577 8.7 22.9257 8.532C23.0937 8.364 23.2977 8.28 23.5377 8.28H26.3817V2.304C26.3817 2.04 26.4657 1.836 26.6337 1.692C26.8017 1.524 27.0057 1.44 27.2457 1.44H30.1617C30.4257 1.44 30.6297 1.524 30.7737 1.692C30.9417 1.836 31.0257 2.04 31.0257 2.304V8.28H35.5257C35.7897 8.28 35.9937 8.364 36.1377 8.532C36.3057 8.676 36.3897 8.88 36.3897 9.144V11.196C36.3897 11.46 36.3057 11.676 36.1377 11.844C35.9697 12.012 35.7657 12.096 35.5257 12.096H31.0257V19.908C31.0257 20.94 31.2057 21.72 31.5657 22.248C31.9257 22.776 32.5257 23.04 33.3657 23.04H35.8497C36.0897 23.04 36.2937 23.124 36.4617 23.292C36.6297 23.46 36.7137 23.664 36.7137 23.904V26.136C36.7137 26.376 36.6297 26.58 36.4617 26.748C36.3177 26.916 36.1137 27 35.8497 27H32.9337ZM45.3433 27.36C44.1193 27.36 42.9913 27.12 41.9593 26.64C40.9513 26.136 40.1473 25.464 39.5473 24.624C38.9713 23.784 38.6833 22.86 38.6833 21.852C38.6833 20.22 39.3433 18.9 40.6633 17.892C41.9833 16.884 43.7953 16.2 46.0993 15.84L51.0313 15.12V14.364C51.0313 13.308 50.7673 12.516 50.2393 11.988C49.7113 11.46 48.8593 11.196 47.6833 11.196C46.8913 11.196 46.2433 11.352 45.7393 11.664C45.2593 11.952 44.8753 12.24 44.5873 12.528C44.2993 12.84 44.1073 13.044 44.0113 13.14C43.9153 13.428 43.7353 13.572 43.4713 13.572H40.6993C40.4833 13.572 40.2913 13.5 40.1233 13.356C39.9793 13.212 39.9072 13.02 39.9072 12.78C39.9313 12.18 40.2193 11.496 40.7713 10.728C41.3473 9.96 42.2233 9.3 43.3993 8.748C44.5753 8.196 46.0153 7.92 47.7193 7.92C50.5513 7.92 52.6153 8.556 53.9113 9.828C55.2073 11.1 55.8553 12.768 55.8553 14.832V26.136C55.8553 26.376 55.7713 26.58 55.6033 26.748C55.4593 26.916 55.2553 27 54.9913 27H52.0753C51.8353 27 51.6313 26.916 51.4633 26.748C51.2953 26.58 51.2113 26.376 51.2113 26.136V24.732C50.6833 25.5 49.9273 26.136 48.9433 26.64C47.9833 27.12 46.7833 27.36 45.3433 27.36ZM46.5673 23.94C47.8873 23.94 48.9673 23.508 49.8073 22.644C50.6473 21.78 51.0673 20.52 51.0673 18.864V18.108L47.4673 18.684C46.0753 18.9 45.0193 19.248 44.2993 19.728C43.6033 20.208 43.2553 20.796 43.2553 21.492C43.2553 22.26 43.5793 22.86 44.2273 23.292C44.8753 23.724 45.6553 23.94 46.5673 23.94ZM63.3655 33.84C63.1735 33.84 63.0055 33.768 62.8615 33.624C62.7175 33.48 62.6455 33.312 62.6455 33.12C62.6455 32.904 62.6935 32.712 62.7895 32.544L65.5975 25.884L58.6855 9.576C58.5895 9.36 58.5415 9.192 58.5415 9.072C58.5655 8.856 58.6495 8.676 58.7935 8.532C58.9375 8.364 59.1175 8.28 59.3335 8.28H62.2495C62.7055 8.28 63.0295 8.508 63.2215 8.964L68.0095 20.736L72.9415 8.964C73.1335 8.508 73.4575 8.28 73.9135 8.28H76.7935C76.9855 8.28 77.1535 8.352 77.2975 8.496C77.4655 8.64 77.5495 8.808 77.5495 9C77.5495 9.168 77.5015 9.36 77.4055 9.576L67.2175 33.156C67.0015 33.612 66.6655 33.84 66.2095 33.84H63.3655ZM151.979 77.36C148.691 77.36 146.123 76.508 144.275 74.804C142.451 73.1 141.479 70.724 141.359 67.676C141.335 66.98 141.323 65.864 141.323 64.328C141.323 62.792 141.335 61.676 141.359 60.98C141.479 58.004 142.463 55.676 144.311 53.996C146.183 52.292 148.739 51.44 151.979 51.44C154.187 51.44 156.083 51.812 157.667 52.556C159.251 53.3 160.451 54.236 161.267 55.364C162.083 56.468 162.515 57.56 162.563 58.64V58.712C162.563 58.904 162.491 59.072 162.347 59.216C162.203 59.336 162.023 59.396 161.807 59.396H158.099C157.859 59.396 157.679 59.36 157.559 59.288C157.439 59.192 157.331 59.036 157.235 58.82C156.899 57.932 156.311 57.176 155.471 56.552C154.631 55.904 153.467 55.58 151.979 55.58C150.299 55.58 148.979 56.036 148.019 56.948C147.083 57.86 146.579 59.264 146.507 61.16C146.483 61.856 146.471 62.912 146.471 64.328C146.471 65.72 146.483 66.776 146.507 67.496C146.651 71.312 148.499 73.22 152.051 73.22C153.755 73.22 155.123 72.764 156.155 71.852C157.187 70.916 157.703 69.536 157.703 67.712V66.596H153.311C153.047 66.596 152.831 66.512 152.663 66.344C152.519 66.176 152.447 65.96 152.447 65.696V63.788C152.447 63.524 152.519 63.308 152.663 63.14C152.831 62.972 153.047 62.888 153.311 62.888H161.915C162.179 62.888 162.383 62.972 162.527 63.14C162.695 63.308 162.779 63.524 162.779 63.788V67.568C162.779 69.56 162.335 71.3 161.447 72.788C160.583 74.252 159.335 75.38 157.703 76.172C156.071 76.964 154.163 77.36 151.979 77.36ZM175.242 77.36C172.434 77.36 170.262 76.64 168.726 75.2C167.19 73.736 166.362 71.744 166.242 69.224L166.206 67.64L166.242 66.056C166.362 63.56 167.202 61.58 168.762 60.116C170.322 58.652 172.482 57.92 175.242 57.92C178.002 57.92 180.162 58.652 181.722 60.116C183.282 61.58 184.122 63.56 184.242 66.056C184.266 66.344 184.278 66.872 184.278 67.64C184.278 68.408 184.266 68.936 184.242 69.224C184.122 71.744 183.294 73.736 181.758 75.2C180.222 76.64 178.05 77.36 175.242 77.36ZM175.242 73.796C176.514 73.796 177.498 73.4 178.194 72.608C178.89 71.792 179.274 70.604 179.346 69.044C179.37 68.804 179.382 68.336 179.382 67.64C179.382 66.944 179.37 66.476 179.346 66.236C179.274 64.676 178.89 63.5 178.194 62.708C177.498 61.892 176.514 61.484 175.242 61.484C173.97 61.484 172.986 61.892 172.29 62.708C171.594 63.5 171.21 64.676 171.138 66.236L171.102 67.64L171.138 69.044C171.21 70.604 171.594 71.792 172.29 72.608C172.986 73.4 173.97 73.796 175.242 73.796ZM196.547 77.36C193.739 77.36 191.567 76.64 190.031 75.2C188.495 73.736 187.667 71.744 187.547 69.224L187.511 67.64L187.547 66.056C187.667 63.56 188.507 61.58 190.067 60.116C191.627 58.652 193.787 57.92 196.547 57.92C199.307 57.92 201.467 58.652 203.027 60.116C204.587 61.58 205.427 63.56 205.547 66.056C205.571 66.344 205.583 66.872 205.583 67.64C205.583 68.408 205.571 68.936 205.547 69.224C205.427 71.744 204.599 73.736 203.063 75.2C201.527 76.64 199.355 77.36 196.547 77.36ZM196.547 73.796C197.819 73.796 198.803 73.4 199.499 72.608C200.195 71.792 200.579 70.604 200.651 69.044C200.675 68.804 200.687 68.336 200.687 67.64C200.687 66.944 200.675 66.476 200.651 66.236C200.579 64.676 200.195 63.5 199.499 62.708C198.803 61.892 197.819 61.484 196.547 61.484C195.275 61.484 194.291 61.892 193.595 62.708C192.899 63.5 192.515 64.676 192.443 66.236L192.407 67.64L192.443 69.044C192.515 70.604 192.899 71.792 193.595 72.608C194.291 73.4 195.275 73.796 196.547 73.796ZM216.519 77.36C214.095 77.36 212.235 76.58 210.939 75.02C209.643 73.46 208.947 71.384 208.851 68.792L208.815 67.604L208.851 66.452C208.923 63.932 209.607 61.88 210.903 60.296C212.223 58.712 214.095 57.92 216.519 57.92C218.847 57.92 220.695 58.712 222.063 60.296V52.304C222.063 52.04 222.147 51.836 222.315 51.692C222.483 51.524 222.687 51.44 222.927 51.44H225.987C226.251 51.44 226.455 51.524 226.599 51.692C226.767 51.836 226.851 52.04 226.851 52.304V76.136C226.851 76.376 226.767 76.58 226.599 76.748C226.455 76.916 226.251 77 225.987 77H223.143C222.903 77 222.699 76.916 222.531 76.748C222.363 76.58 222.279 76.376 222.279 76.136V74.804C220.911 76.508 218.991 77.36 216.519 77.36ZM217.851 73.508C219.243 73.508 220.275 73.064 220.947 72.176C221.619 71.288 221.991 70.196 222.063 68.9C222.087 68.612 222.099 68.144 222.099 67.496C222.099 66.872 222.087 66.416 222.063 66.128C222.015 64.928 221.631 63.908 220.911 63.068C220.215 62.204 219.195 61.772 217.851 61.772C215.259 61.772 213.879 63.368 213.711 66.56L213.675 67.64L213.711 68.72C213.879 71.912 215.259 73.508 217.851 73.508ZM241.172 77C240.932 77 240.728 76.916 240.56 76.748C240.392 76.58 240.308 76.376 240.308 76.136V52.7C240.308 52.436 240.38 52.22 240.524 52.052C240.692 51.884 240.908 51.8 241.172 51.8H256.796C257.06 51.8 257.276 51.884 257.444 52.052C257.612 52.22 257.696 52.436 257.696 52.7V55.22C257.696 55.484 257.612 55.7 257.444 55.868C257.276 56.012 257.06 56.084 256.796 56.084H245.24V62.924H256.076C256.34 62.924 256.556 63.008 256.724 63.176C256.892 63.344 256.976 63.56 256.976 63.824V66.344C256.976 66.608 256.892 66.824 256.724 66.992C256.556 67.136 256.34 67.208 256.076 67.208H245.24V76.136C245.24 76.4 245.156 76.616 244.988 76.784C244.82 76.928 244.604 77 244.34 77H241.172ZM269.426 77.36C266.618 77.36 264.446 76.64 262.91 75.2C261.374 73.736 260.546 71.744 260.426 69.224L260.39 67.64L260.426 66.056C260.546 63.56 261.386 61.58 262.946 60.116C264.506 58.652 266.666 57.92 269.426 57.92C272.186 57.92 274.346 58.652 275.906 60.116C277.466 61.58 278.306 63.56 278.426 66.056C278.45 66.344 278.462 66.872 278.462 67.64C278.462 68.408 278.45 68.936 278.426 69.224C278.306 71.744 277.478 73.736 275.942 75.2C274.406 76.64 272.234 77.36 269.426 77.36ZM269.426 73.796C270.698 73.796 271.682 73.4 272.378 72.608C273.074 71.792 273.458 70.604 273.53 69.044C273.554 68.804 273.566 68.336 273.566 67.64C273.566 66.944 273.554 66.476 273.53 66.236C273.458 64.676 273.074 63.5 272.378 62.708C271.682 61.892 270.698 61.484 269.426 61.484C268.154 61.484 267.17 61.892 266.474 62.708C265.778 63.5 265.394 64.676 265.322 66.236L265.286 67.64L265.322 69.044C265.394 70.604 265.778 71.792 266.474 72.608C267.17 73.4 268.154 73.796 269.426 73.796ZM290.73 77.36C287.922 77.36 285.75 76.64 284.214 75.2C282.678 73.736 281.85 71.744 281.73 69.224L281.694 67.64L281.73 66.056C281.85 63.56 282.69 61.58 284.25 60.116C285.81 58.652 287.97 57.92 290.73 57.92C293.49 57.92 295.65 58.652 297.21 60.116C298.77 61.58 299.61 63.56 299.73 66.056C299.754 66.344 299.766 66.872 299.766 67.64C299.766 68.408 299.754 68.936 299.73 69.224C299.61 71.744 298.782 73.736 297.246 75.2C295.71 76.64 293.538 77.36 290.73 77.36ZM290.73 73.796C292.002 73.796 292.986 73.4 293.682 72.608C294.378 71.792 294.762 70.604 294.834 69.044C294.858 68.804 294.87 68.336 294.87 67.64C294.87 66.944 294.858 66.476 294.834 66.236C294.762 64.676 294.378 63.5 293.682 62.708C292.986 61.892 292.002 61.484 290.73 61.484C289.458 61.484 288.474 61.892 287.778 62.708C287.082 63.5 286.698 64.676 286.626 66.236L286.59 67.64L286.626 69.044C286.698 70.604 287.082 71.792 287.778 72.608C288.474 73.4 289.458 73.796 290.73 73.796ZM310.703 77.36C308.279 77.36 306.419 76.58 305.123 75.02C303.827 73.46 303.131 71.384 303.035 68.792L302.999 67.604L303.035 66.452C303.107 63.932 303.791 61.88 305.087 60.296C306.407 58.712 308.279 57.92 310.703 57.92C313.031 57.92 314.879 58.712 316.247 60.296V52.304C316.247 52.04 316.331 51.836 316.499 51.692C316.667 51.524 316.871 51.44 317.111 51.44H320.171C320.435 51.44 320.639 51.524 320.783 51.692C320.951 51.836 321.035 52.04 321.035 52.304V76.136C321.035 76.376 320.951 76.58 320.783 76.748C320.639 76.916 320.435 77 320.171 77H317.327C317.087 77 316.883 76.916 316.715 76.748C316.547 76.58 316.463 76.376 316.463 76.136V74.804C315.095 76.508 313.175 77.36 310.703 77.36ZM312.035 73.508C313.427 73.508 314.459 73.064 315.131 72.176C315.803 71.288 316.175 70.196 316.247 68.9C316.271 68.612 316.283 68.144 316.283 67.496C316.283 66.872 316.271 66.416 316.247 66.128C316.199 64.928 315.815 63.908 315.095 63.068C314.399 62.204 313.379 61.772 312.035 61.772C309.443 61.772 308.063 63.368 307.895 66.56L307.859 67.64L307.895 68.72C308.063 71.912 309.443 73.508 312.035 73.508Z" fill="#FF7A50"/>
<path d="M86.8147 27C86.6227 27 86.4427 26.928 86.2747 26.784C86.1307 26.64 86.0587 26.46 86.0587 26.244L86.1307 25.92L94.8067 2.7C94.9747 2.1 95.3947 1.8 96.0667 1.8H99.9907C100.615 1.8 101.035 2.1 101.251 2.7L109.927 25.92C109.951 25.992 109.963 26.1 109.963 26.244C109.963 26.46 109.891 26.64 109.747 26.784C109.603 26.928 109.435 27 109.243 27H106.111C105.799 27 105.559 26.928 105.391 26.784C105.223 26.64 105.115 26.484 105.067 26.316L103.375 21.924H92.6827L90.9907 26.316C90.7987 26.772 90.4507 27 89.9467 27H86.8147ZM102.115 17.784L98.0107 6.66L93.9427 17.784H102.115ZM120.262 27C118.078 27 116.434 26.436 115.33 25.308C114.25 24.156 113.71 22.476 113.71 20.268V12.096H110.866C110.626 12.096 110.422 12.012 110.254 11.844C110.086 11.652 110.002 11.436 110.002 11.196V9.144C110.002 8.904 110.086 8.7 110.254 8.532C110.422 8.364 110.626 8.28 110.866 8.28H113.71V2.304C113.71 2.04 113.794 1.836 113.962 1.692C114.13 1.524 114.334 1.44 114.574 1.44H117.49C117.754 1.44 117.958 1.524 118.102 1.692C118.27 1.836 118.354 2.04 118.354 2.304V8.28H122.854C123.118 8.28 123.322 8.364 123.466 8.532C123.634 8.676 123.718 8.88 123.718 9.144V11.196C123.718 11.46 123.634 11.676 123.466 11.844C123.298 12.012 123.094 12.096 122.854 12.096H118.354V19.908C118.354 20.94 118.534 21.72 118.894 22.248C119.254 22.776 119.854 23.04 120.694 23.04H123.178C123.418 23.04 123.622 23.124 123.79 23.292C123.958 23.46 124.042 23.664 124.042 23.904V26.136C124.042 26.376 123.958 26.58 123.79 26.748C123.646 26.916 123.442 27 123.178 27H120.262ZM136.758 27C136.518 27 136.314 26.916 136.146 26.748C135.978 26.58 135.894 26.376 135.894 26.136V2.7C135.894 2.436 135.966 2.22 136.11 2.052C136.278 1.884 136.494 1.8 136.758 1.8H140.034C140.298 1.8 140.502 1.884 140.646 2.052C140.814 2.22 140.898 2.436 140.898 2.7V11.988H151.518V2.7C151.518 2.436 151.59 2.22 151.734 2.052C151.902 1.884 152.118 1.8 152.382 1.8H155.622C155.886 1.8 156.102 1.884 156.27 2.052C156.438 2.22 156.522 2.436 156.522 2.7V26.136C156.522 26.4 156.438 26.616 156.27 26.784C156.102 26.928 155.886 27 155.622 27H152.382C152.142 27 151.938 26.916 151.77 26.748C151.602 26.58 151.518 26.376 151.518 26.136V16.488H140.898V26.136C140.898 26.376 140.814 26.58 140.646 26.748C140.502 26.916 140.298 27 140.034 27H136.758ZM169.969 27.36C167.161 27.36 164.989 26.64 163.453 25.2C161.917 23.736 161.089 21.744 160.969 19.224L160.933 17.64L160.969 16.056C161.089 13.56 161.929 11.58 163.489 10.116C165.049 8.652 167.209 7.92 169.969 7.92C172.729 7.92 174.889 8.652 176.449 10.116C178.009 11.58 178.849 13.56 178.969 16.056C178.993 16.344 179.005 16.872 179.005 17.64C179.005 18.408 178.993 18.936 178.969 19.224C178.849 21.744 178.021 23.736 176.485 25.2C174.949 26.64 172.777 27.36 169.969 27.36ZM169.969 23.796C171.241 23.796 172.225 23.4 172.921 22.608C173.617 21.792 174.001 20.604 174.073 19.044C174.097 18.804 174.109 18.336 174.109 17.64C174.109 16.944 174.097 16.476 174.073 16.236C174.001 14.676 173.617 13.5 172.921 12.708C172.225 11.892 171.241 11.484 169.969 11.484C168.697 11.484 167.713 11.892 167.017 12.708C166.321 13.5 165.937 14.676 165.865 16.236L165.829 17.64L165.865 19.044C165.937 20.604 166.321 21.792 167.017 22.608C167.713 23.4 168.697 23.796 169.969 23.796ZM183.857 27C183.617 27 183.413 26.916 183.245 26.748C183.077 26.58 182.993 26.376 182.993 26.136V9.144C182.993 8.904 183.077 8.7 183.245 8.532C183.413 8.364 183.617 8.28 183.857 8.28H186.665C186.905 8.28 187.109 8.364 187.277 8.532C187.445 8.7 187.529 8.904 187.529 9.144V10.368C188.777 8.736 190.517 7.92 192.749 7.92C195.413 7.92 197.273 8.988 198.329 11.124C198.905 10.164 199.721 9.396 200.777 8.82C201.833 8.22 202.973 7.92 204.197 7.92C206.165 7.92 207.773 8.592 209.021 9.936C210.269 11.28 210.893 13.236 210.893 15.804V26.136C210.893 26.376 210.809 26.58 210.641 26.748C210.497 26.916 210.293 27 210.029 27H207.077C206.837 27 206.633 26.916 206.465 26.748C206.297 26.58 206.213 26.376 206.213 26.136V16.092C206.213 14.58 205.889 13.488 205.241 12.816C204.617 12.12 203.777 11.772 202.721 11.772C201.785 11.772 200.981 12.12 200.309 12.816C199.661 13.512 199.337 14.604 199.337 16.092V26.136C199.337 26.376 199.253 26.58 199.085 26.748C198.917 26.916 198.713 27 198.473 27H195.521C195.281 27 195.077 26.916 194.909 26.748C194.741 26.58 194.657 26.376 194.657 26.136V16.092C194.657 14.58 194.321 13.488 193.649 12.816C193.001 12.12 192.173 11.772 191.165 11.772C190.205 11.772 189.389 12.12 188.717 12.816C188.069 13.512 187.745 14.604 187.745 16.092V26.136C187.745 26.376 187.661 26.58 187.493 26.748C187.325 26.916 187.121 27 186.881 27H183.857ZM223.542 27.36C220.878 27.36 218.754 26.592 217.17 25.056C215.61 23.496 214.782 21.312 214.686 18.504L214.65 17.604L214.686 16.704C214.806 13.968 215.646 11.82 217.206 10.26C218.79 8.7 220.902 7.92 223.542 7.92C226.374 7.92 228.558 8.784 230.094 10.512C231.654 12.24 232.434 14.544 232.434 17.424V18.18C232.434 18.42 232.35 18.624 232.182 18.792C232.014 18.96 231.798 19.044 231.534 19.044H219.582V19.332C219.63 20.652 219.99 21.768 220.662 22.68C221.358 23.568 222.306 24.012 223.506 24.012C224.922 24.012 226.062 23.46 226.926 22.356C227.142 22.092 227.31 21.924 227.43 21.852C227.574 21.78 227.778 21.744 228.042 21.744H231.138C231.354 21.744 231.534 21.816 231.678 21.96C231.846 22.08 231.93 22.236 231.93 22.428C231.93 23.004 231.582 23.688 230.886 24.48C230.214 25.248 229.242 25.92 227.97 26.496C226.698 27.072 225.222 27.36 223.542 27.36ZM227.538 16.02V15.912C227.538 14.496 227.178 13.356 226.458 12.492C225.762 11.628 224.79 11.196 223.542 11.196C222.294 11.196 221.322 11.628 220.626 12.492C219.93 13.356 219.582 14.496 219.582 15.912V16.02H227.538ZM236.039 29.7C235.823 29.7 235.655 29.628 235.535 29.484C235.415 29.34 235.367 29.16 235.391 28.944L236.363 22.824C236.411 22.488 236.531 22.212 236.723 21.996C236.915 21.78 237.179 21.672 237.515 21.672H240.827C240.995 21.672 241.139 21.744 241.259 21.888C241.403 22.008 241.475 22.164 241.475 22.356C241.475 22.476 241.439 22.632 241.367 22.824L239.063 28.8C238.943 29.088 238.787 29.304 238.595 29.448C238.427 29.616 238.187 29.7 237.875 29.7H236.039ZM258.124 27C257.764 27 257.476 26.904 257.26 26.712C257.044 26.52 256.912 26.256 256.864 25.92L252.58 2.844L252.544 2.556C252.544 2.34 252.616 2.16 252.76 2.016C252.928 1.872 253.108 1.8 253.3 1.8H256.468C257.068 1.8 257.404 2.04 257.476 2.52L260.464 18.828L263.704 8.28C263.944 7.68 264.34 7.38 264.892 7.38H266.836C267.436 7.38 267.82 7.68 267.988 8.28L271.264 18.792L274.252 2.52C274.3 2.256 274.396 2.076 274.54 1.98C274.708 1.86 274.948 1.8 275.26 1.8H278.428C278.62 1.8 278.788 1.872 278.932 2.016C279.076 2.16 279.148 2.34 279.148 2.556C279.148 2.676 279.136 2.772 279.112 2.844L274.828 25.92C274.708 26.64 274.288 27 273.568 27H271.156C270.82 27 270.544 26.916 270.328 26.748C270.112 26.58 269.968 26.364 269.896 26.1L265.864 14.076L261.832 26.1C261.592 26.7 261.16 27 260.536 27H258.124ZM290.303 27.36C287.639 27.36 285.515 26.592 283.931 25.056C282.371 23.496 281.543 21.312 281.447 18.504L281.411 17.604L281.447 16.704C281.567 13.968 282.407 11.82 283.967 10.26C285.551 8.7 287.663 7.92 290.303 7.92C293.135 7.92 295.319 8.784 296.855 10.512C298.415 12.24 299.195 14.544 299.195 17.424V18.18C299.195 18.42 299.111 18.624 298.943 18.792C298.775 18.96 298.559 19.044 298.295 19.044H286.343V19.332C286.391 20.652 286.751 21.768 287.423 22.68C288.119 23.568 289.067 24.012 290.267 24.012C291.683 24.012 292.823 23.46 293.687 22.356C293.903 22.092 294.071 21.924 294.191 21.852C294.335 21.78 294.539 21.744 294.803 21.744H297.899C298.115 21.744 298.295 21.816 298.439 21.96C298.607 22.08 298.691 22.236 298.691 22.428C298.691 23.004 298.343 23.688 297.647 24.48C296.975 25.248 296.003 25.92 294.731 26.496C293.459 27.072 291.983 27.36 290.303 27.36ZM294.299 16.02V15.912C294.299 14.496 293.939 13.356 293.219 12.492C292.523 11.628 291.551 11.196 290.303 11.196C289.055 11.196 288.083 11.628 287.387 12.492C286.691 13.356 286.343 14.496 286.343 15.912V16.02H294.299ZM315.393 27C315.033 27 314.745 26.904 314.529 26.712C314.313 26.52 314.181 26.256 314.133 25.92L309.849 2.844L309.813 2.556C309.813 2.34 309.885 2.16 310.029 2.016C310.197 1.872 310.377 1.8 310.569 1.8H313.737C314.337 1.8 314.673 2.04 314.745 2.52L317.733 18.828L320.973 8.28C321.213 7.68 321.609 7.38 322.161 7.38H324.105C324.705 7.38 325.089 7.68 325.257 8.28L328.533 18.792L331.521 2.52C331.569 2.256 331.665 2.076 331.809 1.98C331.977 1.86 332.217 1.8 332.529 1.8H335.697C335.889 1.8 336.057 1.872 336.201 2.016C336.345 2.16 336.417 2.34 336.417 2.556C336.417 2.676 336.405 2.772 336.381 2.844L332.097 25.92C331.977 26.64 331.557 27 330.837 27H328.425C328.089 27 327.813 26.916 327.597 26.748C327.381 26.58 327.237 26.364 327.165 26.1L323.133 14.076L319.101 26.1C318.861 26.7 318.429 27 317.805 27H315.393ZM340.932 5.184C340.692 5.184 340.488 5.1 340.32 4.932C340.152 4.764 340.068 4.56 340.068 4.32V1.728C340.068 1.488 340.152 1.284 340.32 1.116C340.488 0.947999 340.692 0.864 340.932 0.864H344.208C344.448 0.864 344.652 0.947999 344.82 1.116C345.012 1.284 345.108 1.488 345.108 1.728V4.32C345.108 4.56 345.024 4.764 344.856 4.932C344.688 5.1 344.472 5.184 344.208 5.184H340.932ZM341.076 27C340.836 27 340.632 26.916 340.464 26.748C340.296 26.58 340.212 26.376 340.212 26.136V9.144C340.212 8.904 340.296 8.7 340.464 8.532C340.632 8.364 340.836 8.28 341.076 8.28H344.064C344.328 8.28 344.532 8.364 344.676 8.532C344.844 8.676 344.928 8.88 344.928 9.144V26.136C344.928 26.376 344.844 26.58 344.676 26.748C344.532 26.916 344.328 27 344.064 27H341.076ZM350.604 27C350.364 27 350.16 26.916 349.992 26.748C349.824 26.58 349.74 26.376 349.74 26.136V2.304C349.74 2.04 349.824 1.836 349.992 1.692C350.16 1.524 350.364 1.44 350.604 1.44H353.592C353.856 1.44 354.06 1.524 354.204 1.692C354.372 1.836 354.456 2.04 354.456 2.304V26.136C354.456 26.376 354.372 26.58 354.204 26.748C354.06 26.916 353.856 27 353.592 27H350.604ZM360.131 27C359.891 27 359.687 26.916 359.519 26.748C359.351 26.58 359.267 26.376 359.267 26.136V2.304C359.267 2.04 359.351 1.836 359.519 1.692C359.687 1.524 359.891 1.44 360.131 1.44H363.119C363.383 1.44 363.587 1.524 363.731 1.692C363.899 1.836 363.983 2.04 363.983 2.304V26.136C363.983 26.376 363.899 26.58 363.731 26.748C363.587 26.916 363.383 27 363.119 27H360.131ZM2.672 77C2.432 77 2.228 76.916 2.06 76.748C1.892 76.58 1.808 76.376 1.808 76.136V52.7C1.808 52.436 1.88 52.22 2.024 52.052C2.192 51.884 2.408 51.8 2.672 51.8H12.32C15.2 51.8 17.468 52.484 19.124 53.852C20.78 55.196 21.608 57.176 21.608 59.792C21.608 62.408 20.78 64.388 19.124 65.732C17.492 67.052 15.224 67.712 12.32 67.712H6.956V76.136C6.956 76.376 6.872 76.58 6.704 76.748C6.56 76.916 6.356 77 6.092 77H2.672ZM12.14 63.716C13.532 63.716 14.6 63.392 15.344 62.744C16.088 62.072 16.46 61.088 16.46 59.792C16.46 58.544 16.1 57.572 15.38 56.876C14.66 56.156 13.58 55.796 12.14 55.796H6.884V63.716H12.14ZM25.9705 77C25.7305 77 25.5265 76.916 25.3585 76.748C25.1905 76.58 25.1065 76.376 25.1065 76.136V59.18C25.1065 58.94 25.1905 58.736 25.3585 58.568C25.5265 58.376 25.7305 58.28 25.9705 58.28H28.8865C29.1505 58.28 29.3665 58.364 29.5345 58.532C29.7025 58.7 29.7865 58.916 29.7865 59.18V60.656C30.3625 59.888 31.0825 59.3 31.9465 58.892C32.8345 58.484 33.8425 58.28 34.9705 58.28H36.4465C36.7105 58.28 36.9145 58.364 37.0585 58.532C37.2265 58.676 37.3105 58.88 37.3105 59.144V61.736C37.3105 61.976 37.2265 62.18 37.0585 62.348C36.9145 62.516 36.7105 62.6 36.4465 62.6H33.6385C32.5105 62.6 31.6225 62.924 30.9745 63.572C30.3265 64.22 30.0025 65.108 30.0025 66.236V76.136C30.0025 76.376 29.9185 76.58 29.7505 76.748C29.5825 76.916 29.3665 77 29.1025 77H25.9705ZM48.1521 77.36C45.3441 77.36 43.1721 76.64 41.6361 75.2C40.1001 73.736 39.2721 71.744 39.1521 69.224L39.1161 67.64L39.1521 66.056C39.2721 63.56 40.1121 61.58 41.6721 60.116C43.2321 58.652 45.3921 57.92 48.1521 57.92C50.9121 57.92 53.0721 58.652 54.6321 60.116C56.1921 61.58 57.0321 63.56 57.1521 66.056C57.1761 66.344 57.1881 66.872 57.1881 67.64C57.1881 68.408 57.1761 68.936 57.1521 69.224C57.0321 71.744 56.2041 73.736 54.6681 75.2C53.1321 76.64 50.9601 77.36 48.1521 77.36ZM48.1521 73.796C49.4241 73.796 50.4081 73.4 51.1041 72.608C51.8001 71.792 52.1841 70.604 52.2561 69.044C52.2801 68.804 52.2921 68.336 52.2921 67.64C52.2921 66.944 52.2801 66.476 52.2561 66.236C52.1841 64.676 51.8001 63.5 51.1041 62.708C50.4081 61.892 49.4241 61.484 48.1521 61.484C46.8801 61.484 45.8961 61.892 45.2001 62.708C44.5041 63.5 44.1201 64.676 44.0481 66.236L44.0121 67.64L44.0481 69.044C44.1201 70.604 44.5041 71.792 45.2001 72.608C45.8961 73.4 46.8801 73.796 48.1521 73.796ZM67.1328 77C66.7728 77 66.4968 76.928 66.3048 76.784C66.1128 76.616 65.9568 76.388 65.8368 76.1L59.1048 59.396L59.0328 59.072C59.0328 58.856 59.1048 58.676 59.2488 58.532C59.4168 58.364 59.6088 58.28 59.8248 58.28H62.7408C63.1968 58.28 63.5088 58.508 63.6768 58.964L68.4648 71.6L73.2528 58.964C73.3248 58.796 73.4328 58.64 73.5768 58.496C73.7448 58.352 73.9488 58.28 74.1888 58.28H77.1408C77.3328 58.28 77.5008 58.364 77.6448 58.532C77.8128 58.676 77.8968 58.856 77.8968 59.072C77.8968 59.216 77.8848 59.324 77.8608 59.396L71.0928 76.1C70.9728 76.388 70.8168 76.616 70.6248 76.784C70.4328 76.928 70.1568 77 69.7968 77H67.1328ZM81.9007 55.184C81.6607 55.184 81.4567 55.1 81.2887 54.932C81.1207 54.764 81.0367 54.56 81.0367 54.32V51.728C81.0367 51.488 81.1207 51.284 81.2887 51.116C81.4567 50.948 81.6607 50.864 81.9007 50.864H85.1767C85.4167 50.864 85.6207 50.948 85.7887 51.116C85.9807 51.284 86.0767 51.488 86.0767 51.728V54.32C86.0767 54.56 85.9927 54.764 85.8247 54.932C85.6567 55.1 85.4407 55.184 85.1767 55.184H81.9007ZM82.0447 77C81.8047 77 81.6007 76.916 81.4327 76.748C81.2647 76.58 81.1807 76.376 81.1807 76.136V59.144C81.1807 58.904 81.2647 58.7 81.4327 58.532C81.6007 58.364 81.8047 58.28 82.0447 58.28H85.0327C85.2967 58.28 85.5007 58.364 85.6447 58.532C85.8127 58.676 85.8967 58.88 85.8967 59.144V76.136C85.8967 76.376 85.8127 76.58 85.6447 76.748C85.5007 76.916 85.2967 77 85.0327 77H82.0447ZM97.6209 77.36C95.1969 77.36 93.3369 76.58 92.0409 75.02C90.7449 73.46 90.0489 71.384 89.9529 68.792L89.9169 67.604L89.9529 66.452C90.0249 63.932 90.7089 61.88 92.0049 60.296C93.3249 58.712 95.1969 57.92 97.6209 57.92C99.9489 57.92 101.797 58.712 103.165 60.296V52.304C103.165 52.04 103.249 51.836 103.417 51.692C103.585 51.524 103.789 51.44 104.029 51.44H107.089C107.353 51.44 107.557 51.524 107.701 51.692C107.869 51.836 107.953 52.04 107.953 52.304V76.136C107.953 76.376 107.869 76.58 107.701 76.748C107.557 76.916 107.353 77 107.089 77H104.245C104.005 77 103.801 76.916 103.633 76.748C103.465 76.58 103.381 76.376 103.381 76.136V74.804C102.013 76.508 100.093 77.36 97.6209 77.36ZM98.9529 73.508C100.345 73.508 101.377 73.064 102.049 72.176C102.721 71.288 103.093 70.196 103.165 68.9C103.189 68.612 103.201 68.144 103.201 67.496C103.201 66.872 103.189 66.416 103.165 66.128C103.117 64.928 102.733 63.908 102.013 63.068C101.317 62.204 100.297 61.772 98.9529 61.772C96.3609 61.772 94.9809 63.368 94.8129 66.56L94.7769 67.64L94.8129 68.72C94.9809 71.912 96.3609 73.508 98.9529 73.508ZM120.815 77.36C118.151 77.36 116.027 76.592 114.443 75.056C112.883 73.496 112.055 71.312 111.959 68.504L111.923 67.604L111.959 66.704C112.079 63.968 112.919 61.82 114.479 60.26C116.063 58.7 118.175 57.92 120.815 57.92C123.647 57.92 125.831 58.784 127.367 60.512C128.927 62.24 129.707 64.544 129.707 67.424V68.18C129.707 68.42 129.623 68.624 129.455 68.792C129.287 68.96 129.071 69.044 128.807 69.044H116.855V69.332C116.903 70.652 117.263 71.768 117.935 72.68C118.631 73.568 119.579 74.012 120.779 74.012C122.195 74.012 123.335 73.46 124.199 72.356C124.415 72.092 124.583 71.924 124.703 71.852C124.847 71.78 125.051 71.744 125.315 71.744H128.411C128.627 71.744 128.807 71.816 128.951 71.96C129.119 72.08 129.203 72.236 129.203 72.428C129.203 73.004 128.855 73.688 128.159 74.48C127.487 75.248 126.515 75.92 125.243 76.496C123.971 77.072 122.495 77.36 120.815 77.36ZM124.811 66.02V65.912C124.811 64.496 124.451 63.356 123.731 62.492C123.035 61.628 122.063 61.196 120.815 61.196C119.567 61.196 118.595 61.628 117.899 62.492C117.203 63.356 116.855 64.496 116.855 65.912V66.02H124.811Z" fill="#363853"/>
</svg>
