<svg width="509" height="138" viewBox="0 0 509 138" fill="none" xmlns="http://www.w3.org/2000/svg">
<path d="M19.186 47.66C15.094 47.66 11.662 47.066 8.89 45.878C6.162 44.646 4.072 43.062 2.62 41.126C1.212 39.146 0.464 37.078 0.376 34.922C0.376 34.526 0.508 34.196 0.772 33.932C1.036 33.668 1.366 33.536 1.762 33.536H7.636C8.208 33.536 8.626 33.668 8.89 33.932C9.198 34.152 9.462 34.438 9.682 34.79C9.946 35.626 10.452 36.462 11.2 37.298C11.948 38.09 12.96 38.75 14.236 39.278C15.556 39.806 17.206 40.07 19.186 40.07C22.354 40.07 24.708 39.542 26.248 38.486C27.832 37.43 28.624 36 28.624 34.196C28.624 32.92 28.206 31.908 27.37 31.16C26.534 30.368 25.236 29.664 23.476 29.048C21.76 28.388 19.472 27.706 16.612 27.002C13.312 26.21 10.54 25.264 8.296 24.164C6.096 23.02 4.424 21.59 3.28 19.874C2.18 18.158 1.63 15.98 1.63 13.34C1.63 10.788 2.312 8.522 3.676 6.542C5.084 4.562 7.064 3 9.616 1.856C12.212 0.711998 15.292 0.139997 18.856 0.139997C21.716 0.139997 24.246 0.535998 26.446 1.328C28.646 2.076 30.472 3.088 31.924 4.364C33.376 5.596 34.476 6.938 35.224 8.39C36.016 9.798 36.434 11.184 36.478 12.548C36.478 12.9 36.346 13.23 36.082 13.538C35.862 13.802 35.532 13.934 35.092 13.934H28.954C28.602 13.934 28.25 13.846 27.898 13.67C27.546 13.494 27.26 13.164 27.04 12.68C26.776 11.316 25.918 10.15 24.466 9.182C23.014 8.214 21.144 7.73 18.856 7.73C16.48 7.73 14.566 8.17 13.114 9.05C11.662 9.93 10.936 11.294 10.936 13.142C10.936 14.374 11.288 15.408 11.992 16.244C12.74 17.036 13.906 17.74 15.49 18.356C17.118 18.972 19.252 19.632 21.892 20.336C25.632 21.172 28.69 22.14 31.066 23.24C33.442 24.34 35.18 25.748 36.28 27.464C37.38 29.136 37.93 31.27 37.93 33.866C37.93 36.77 37.138 39.256 35.554 41.324C34.014 43.348 31.836 44.91 29.02 46.01C26.204 47.11 22.926 47.66 19.186 47.66ZM57.4397 47.66C54.7557 47.66 52.4237 47.066 50.4437 45.878C48.5077 44.646 47.0117 42.93 45.9557 40.73C44.8997 38.486 44.3717 35.846 44.3717 32.81V14.264C44.3717 13.824 44.5257 13.45 44.8337 13.142C45.1417 12.834 45.5157 12.68 45.9557 12.68H51.7637C52.2477 12.68 52.6217 12.834 52.8857 13.142C53.1937 13.45 53.3477 13.824 53.3477 14.264V32.414C53.3477 37.87 55.7457 40.598 60.5417 40.598C62.8297 40.598 64.6337 39.872 65.9537 38.42C67.3177 36.968 67.9997 34.966 67.9997 32.414V14.264C67.9997 13.824 68.1537 13.45 68.4617 13.142C68.7697 12.834 69.1437 12.68 69.5837 12.68H75.3917C75.8317 12.68 76.2057 12.834 76.5137 13.142C76.8217 13.45 76.9757 13.824 76.9757 14.264V45.416C76.9757 45.856 76.8217 46.23 76.5137 46.538C76.2057 46.846 75.8317 47 75.3917 47H70.0457C69.5617 47 69.1657 46.846 68.8577 46.538C68.5937 46.23 68.4617 45.856 68.4617 45.416V42.71C67.2737 44.25 65.7997 45.46 64.0397 46.34C62.2797 47.22 60.0797 47.66 57.4397 47.66ZM87.3439 59.54C86.9039 59.54 86.5299 59.386 86.2219 59.078C85.9139 58.77 85.7599 58.396 85.7599 57.956V14.264C85.7599 13.824 85.9139 13.45 86.2219 13.142C86.5299 12.834 86.9039 12.68 87.3439 12.68H92.5579C93.0419 12.68 93.4159 12.834 93.6799 13.142C93.9879 13.45 94.1419 13.824 94.1419 14.264V16.904C95.1979 15.496 96.5839 14.33 98.2999 13.406C100.016 12.482 102.15 12.02 104.702 12.02C107.034 12.02 109.058 12.394 110.774 13.142C112.49 13.89 113.92 14.968 115.064 16.376C116.208 17.74 117.088 19.368 117.704 21.26C118.32 23.152 118.672 25.242 118.76 27.53C118.804 28.278 118.826 29.048 118.826 29.84C118.826 30.632 118.804 31.424 118.76 32.216C118.716 34.416 118.386 36.462 117.77 38.354C117.154 40.202 116.252 41.83 115.064 43.238C113.92 44.602 112.49 45.68 110.774 46.472C109.058 47.264 107.034 47.66 104.702 47.66C102.326 47.66 100.302 47.242 98.6299 46.406C96.9579 45.526 95.5939 44.382 94.5379 42.974V57.956C94.5379 58.396 94.3839 58.77 94.0759 59.078C93.8119 59.386 93.4379 59.54 92.9539 59.54H87.3439ZM102.26 40.598C104.152 40.598 105.626 40.202 106.682 39.41C107.738 38.574 108.486 37.496 108.926 36.176C109.41 34.856 109.696 33.404 109.784 31.82C109.872 30.5 109.872 29.18 109.784 27.86C109.696 26.276 109.41 24.824 108.926 23.504C108.486 22.184 107.738 21.128 106.682 20.336C105.626 19.5 104.152 19.082 102.26 19.082C100.456 19.082 98.9819 19.5 97.8379 20.336C96.7379 21.172 95.9239 22.25 95.3959 23.57C94.9119 24.846 94.6259 26.166 94.5379 27.53C94.4939 28.322 94.4719 29.158 94.4719 30.038C94.4719 30.918 94.4939 31.776 94.5379 32.612C94.5819 33.932 94.8899 35.208 95.4619 36.44C96.0339 37.628 96.8699 38.618 97.9699 39.41C99.0699 40.202 100.5 40.598 102.26 40.598ZM141.019 47.66C136.135 47.66 132.263 46.252 129.403 43.436C126.543 40.62 125.003 36.616 124.783 31.424C124.739 30.984 124.717 30.434 124.717 29.774C124.717 29.07 124.739 28.52 124.783 28.124C124.959 24.824 125.707 21.964 127.027 19.544C128.391 17.124 130.261 15.276 132.637 14C135.013 12.68 137.807 12.02 141.019 12.02C144.583 12.02 147.575 12.768 149.995 14.264C152.415 15.716 154.241 17.762 155.473 20.402C156.705 22.998 157.321 26.012 157.321 29.444V30.83C157.321 31.27 157.167 31.644 156.859 31.952C156.551 32.26 156.155 32.414 155.671 32.414H133.759C133.759 32.414 133.759 32.48 133.759 32.612C133.759 32.744 133.759 32.854 133.759 32.942C133.803 34.482 134.089 35.912 134.617 37.232C135.189 38.508 136.003 39.542 137.059 40.334C138.159 41.126 139.457 41.522 140.953 41.522C142.185 41.522 143.219 41.346 144.055 40.994C144.891 40.598 145.573 40.158 146.101 39.674C146.629 39.19 147.003 38.794 147.223 38.486C147.619 37.958 147.927 37.65 148.147 37.562C148.411 37.43 148.785 37.364 149.269 37.364H154.945C155.385 37.364 155.737 37.496 156.001 37.76C156.309 38.024 156.441 38.354 156.397 38.75C156.353 39.454 155.979 40.312 155.275 41.324C154.615 42.336 153.647 43.326 152.371 44.294C151.095 45.262 149.489 46.076 147.553 46.736C145.661 47.352 143.483 47.66 141.019 47.66ZM133.759 26.87H148.345V26.672C148.345 24.956 148.059 23.46 147.487 22.184C146.915 20.908 146.079 19.896 144.979 19.148C143.879 18.4 142.559 18.026 141.019 18.026C139.479 18.026 138.159 18.4 137.059 19.148C135.959 19.896 135.123 20.908 134.551 22.184C134.023 23.46 133.759 24.956 133.759 26.672V26.87ZM165.911 47C165.471 47 165.097 46.846 164.789 46.538C164.481 46.23 164.327 45.856 164.327 45.416V14.33C164.327 13.846 164.481 13.45 164.789 13.142C165.097 12.834 165.471 12.68 165.911 12.68H171.257C171.697 12.68 172.071 12.834 172.379 13.142C172.731 13.45 172.907 13.846 172.907 14.33V17.036C173.919 15.628 175.217 14.55 176.801 13.802C178.429 13.054 180.299 12.68 182.411 12.68H185.117C185.601 12.68 185.975 12.834 186.239 13.142C186.547 13.45 186.701 13.824 186.701 14.264V19.016C186.701 19.456 186.547 19.83 186.239 20.138C185.975 20.446 185.601 20.6 185.117 20.6H179.969C177.857 20.6 176.207 21.194 175.019 22.382C173.875 23.57 173.303 25.198 173.303 27.266V45.416C173.303 45.856 173.149 46.23 172.841 46.538C172.533 46.846 172.137 47 171.653 47H165.911ZM207.888 47C207.448 47 207.074 46.846 206.766 46.538C206.458 46.23 206.304 45.856 206.304 45.416V2.45C206.304 1.966 206.458 1.57 206.766 1.262C207.074 0.953997 207.448 0.799997 207.888 0.799997H236.532C237.016 0.799997 237.412 0.953997 237.72 1.262C238.028 1.57 238.182 1.966 238.182 2.45V7.07C238.182 7.554 238.028 7.95 237.72 8.258C237.412 8.522 237.016 8.654 236.532 8.654H215.346V21.194H235.212C235.696 21.194 236.092 21.348 236.4 21.656C236.708 21.964 236.862 22.36 236.862 22.844V27.464C236.862 27.904 236.708 28.278 236.4 28.586C236.092 28.894 235.696 29.048 235.212 29.048H215.346V45.416C215.346 45.856 215.192 46.23 214.884 46.538C214.576 46.846 214.18 47 213.696 47H207.888ZM253.441 47.66C251.153 47.66 249.085 47.22 247.237 46.34C245.389 45.416 243.915 44.206 242.815 42.71C241.759 41.17 241.231 39.454 241.231 37.562C241.231 34.482 242.463 32.04 244.927 30.236C247.435 28.388 250.735 27.156 254.827 26.54L263.869 25.22V23.834C263.869 21.986 263.407 20.556 262.483 19.544C261.559 18.532 259.975 18.026 257.731 18.026C256.147 18.026 254.849 18.356 253.837 19.016C252.869 19.632 252.143 20.468 251.659 21.524C251.307 22.096 250.801 22.382 250.141 22.382H244.927C244.443 22.382 244.069 22.25 243.805 21.986C243.585 21.722 243.475 21.37 243.475 20.93C243.519 20.226 243.805 19.368 244.333 18.356C244.861 17.344 245.697 16.376 246.841 15.452C247.985 14.484 249.459 13.67 251.263 13.01C253.067 12.35 255.245 12.02 257.797 12.02C260.569 12.02 262.901 12.372 264.793 13.076C266.729 13.736 268.269 14.638 269.413 15.782C270.557 16.926 271.393 18.268 271.921 19.808C272.449 21.348 272.713 22.976 272.713 24.692V45.416C272.713 45.856 272.559 46.23 272.251 46.538C271.943 46.846 271.569 47 271.129 47H265.783C265.299 47 264.903 46.846 264.595 46.538C264.331 46.23 264.199 45.856 264.199 45.416V42.842C263.627 43.678 262.857 44.47 261.889 45.218C260.921 45.922 259.733 46.516 258.325 47C256.961 47.44 255.333 47.66 253.441 47.66ZM255.685 41.39C257.225 41.39 258.611 41.06 259.843 40.4C261.119 39.74 262.109 38.728 262.813 37.364C263.561 35.956 263.935 34.196 263.935 32.084V30.698L257.335 31.754C254.739 32.15 252.803 32.788 251.527 33.668C250.251 34.548 249.613 35.626 249.613 36.902C249.613 37.87 249.899 38.706 250.471 39.41C251.087 40.07 251.857 40.576 252.781 40.928C253.705 41.236 254.673 41.39 255.685 41.39ZM294.182 47.66C291.542 47.66 289.276 47.352 287.384 46.736C285.536 46.12 284.018 45.35 282.83 44.426C281.642 43.502 280.762 42.578 280.19 41.654C279.618 40.73 279.31 39.96 279.266 39.344C279.222 38.86 279.354 38.486 279.662 38.222C280.014 37.914 280.388 37.76 280.784 37.76H285.998C286.174 37.76 286.328 37.782 286.46 37.826C286.592 37.87 286.768 38.002 286.988 38.222C287.56 38.706 288.154 39.212 288.77 39.74C289.43 40.268 290.2 40.73 291.08 41.126C291.96 41.478 293.06 41.654 294.38 41.654C296.096 41.654 297.526 41.324 298.67 40.664C299.858 39.96 300.452 38.97 300.452 37.694C300.452 36.77 300.188 36.022 299.66 35.45C299.176 34.878 298.252 34.372 296.888 33.932C295.524 33.448 293.588 32.942 291.08 32.414C288.616 31.842 286.57 31.116 284.942 30.236C283.314 29.356 282.104 28.256 281.312 26.936C280.52 25.616 280.124 24.076 280.124 22.316C280.124 20.6 280.63 18.972 281.642 17.432C282.698 15.848 284.238 14.55 286.262 13.538C288.33 12.526 290.882 12.02 293.918 12.02C296.294 12.02 298.362 12.328 300.122 12.944C301.882 13.516 303.334 14.242 304.478 15.122C305.666 16.002 306.568 16.904 307.184 17.828C307.8 18.708 308.13 19.478 308.174 20.138C308.218 20.622 308.086 21.018 307.778 21.326C307.47 21.59 307.118 21.722 306.722 21.722H301.838C301.618 21.722 301.42 21.678 301.244 21.59C301.068 21.502 300.892 21.392 300.716 21.26C300.232 20.82 299.704 20.358 299.132 19.874C298.56 19.39 297.856 18.972 297.02 18.62C296.228 18.224 295.172 18.026 293.852 18.026C292.18 18.026 290.904 18.4 290.024 19.148C289.144 19.852 288.704 20.754 288.704 21.854C288.704 22.602 288.902 23.262 289.298 23.834C289.738 24.362 290.596 24.868 291.872 25.352C293.148 25.836 295.084 26.342 297.68 26.87C300.628 27.398 302.96 28.19 304.676 29.246C306.436 30.258 307.668 31.446 308.372 32.81C309.12 34.13 309.494 35.604 309.494 37.232C309.494 39.212 308.9 40.994 307.712 42.578C306.568 44.162 304.852 45.416 302.564 46.34C300.32 47.22 297.526 47.66 294.182 47.66ZM331.688 47C329.048 47 326.826 46.538 325.022 45.614C323.218 44.69 321.876 43.326 320.996 41.522C320.116 39.674 319.676 37.386 319.676 34.658V19.676H314.462C314.022 19.676 313.648 19.522 313.34 19.214C313.032 18.906 312.878 18.532 312.878 18.092V14.264C312.878 13.824 313.032 13.45 313.34 13.142C313.648 12.834 314.022 12.68 314.462 12.68H319.676V1.724C319.676 1.284 319.808 0.909998 320.072 0.601999C320.38 0.293998 320.776 0.139997 321.26 0.139997H326.606C327.046 0.139997 327.42 0.293998 327.728 0.601999C328.036 0.909998 328.19 1.284 328.19 1.724V12.68H336.44C336.88 12.68 337.254 12.834 337.562 13.142C337.87 13.45 338.024 13.824 338.024 14.264V18.092C338.024 18.532 337.87 18.906 337.562 19.214C337.254 19.522 336.88 19.676 336.44 19.676H328.19V33.998C328.19 35.802 328.498 37.21 329.114 38.222C329.774 39.234 330.896 39.74 332.48 39.74H337.034C337.474 39.74 337.848 39.894 338.156 40.202C338.464 40.51 338.618 40.884 338.618 41.324V45.416C338.618 45.856 338.464 46.23 338.156 46.538C337.848 46.846 337.474 47 337.034 47H331.688ZM293.499 125.66C289.407 125.66 285.975 125.066 283.203 123.878C280.475 122.646 278.385 121.062 276.933 119.126C275.525 117.146 274.777 115.078 274.689 112.922C274.689 112.526 274.821 112.196 275.085 111.932C275.349 111.668 275.679 111.536 276.075 111.536H281.949C282.521 111.536 282.939 111.668 283.203 111.932C283.511 112.152 283.775 112.438 283.995 112.79C284.259 113.626 284.765 114.462 285.513 115.298C286.261 116.09 287.273 116.75 288.549 117.278C289.869 117.806 291.519 118.07 293.499 118.07C296.667 118.07 299.021 117.542 300.561 116.486C302.145 115.43 302.937 114 302.937 112.196C302.937 110.92 302.519 109.908 301.683 109.16C300.847 108.368 299.549 107.664 297.789 107.048C296.073 106.388 293.785 105.706 290.925 105.002C287.625 104.21 284.853 103.264 282.609 102.164C280.409 101.02 278.737 99.59 277.593 97.874C276.493 96.158 275.943 93.98 275.943 91.34C275.943 88.788 276.625 86.522 277.989 84.542C279.397 82.562 281.377 81 283.929 79.856C286.525 78.712 289.605 78.14 293.169 78.14C296.029 78.14 298.559 78.536 300.759 79.328C302.959 80.076 304.785 81.088 306.236 82.364C307.689 83.596 308.789 84.938 309.537 86.39C310.329 87.798 310.747 89.184 310.791 90.548C310.791 90.9 310.659 91.23 310.395 91.538C310.175 91.802 309.845 91.934 309.405 91.934H303.267C302.915 91.934 302.563 91.846 302.211 91.67C301.859 91.494 301.573 91.164 301.353 90.68C301.089 89.316 300.231 88.15 298.779 87.182C297.327 86.214 295.457 85.73 293.169 85.73C290.793 85.73 288.879 86.17 287.427 87.05C285.975 87.93 285.249 89.294 285.249 91.142C285.249 92.374 285.601 93.408 286.305 94.244C287.053 95.036 288.219 95.74 289.803 96.356C291.431 96.972 293.565 97.632 296.205 98.336C299.945 99.172 303.003 100.14 305.379 101.24C307.755 102.34 309.493 103.748 310.593 105.464C311.693 107.136 312.243 109.27 312.243 111.866C312.243 114.77 311.451 117.256 309.867 119.324C308.327 121.348 306.149 122.91 303.333 124.01C300.517 125.11 297.239 125.66 293.499 125.66ZM333.798 125.66C328.914 125.66 325.042 124.252 322.182 121.436C319.322 118.62 317.782 114.616 317.562 109.424C317.518 108.984 317.496 108.434 317.496 107.774C317.496 107.07 317.518 106.52 317.562 106.124C317.738 102.824 318.486 99.964 319.806 97.544C321.17 95.124 323.04 93.276 325.416 92C327.792 90.68 330.586 90.02 333.798 90.02C337.362 90.02 340.354 90.768 342.774 92.264C345.194 93.716 347.02 95.762 348.252 98.402C349.484 100.998 350.1 104.012 350.1 107.444V108.83C350.1 109.27 349.946 109.644 349.638 109.952C349.33 110.26 348.934 110.414 348.45 110.414H326.538C326.538 110.414 326.538 110.48 326.538 110.612C326.538 110.744 326.538 110.854 326.538 110.942C326.582 112.482 326.868 113.912 327.396 115.232C327.968 116.508 328.782 117.542 329.838 118.334C330.938 119.126 332.236 119.522 333.732 119.522C334.964 119.522 335.998 119.346 336.834 118.994C337.67 118.598 338.352 118.158 338.88 117.674C339.408 117.19 339.782 116.794 340.002 116.486C340.398 115.958 340.706 115.65 340.926 115.562C341.19 115.43 341.564 115.364 342.048 115.364H347.724C348.164 115.364 348.516 115.496 348.78 115.76C349.088 116.024 349.22 116.354 349.176 116.75C349.132 117.454 348.758 118.312 348.054 119.324C347.394 120.336 346.426 121.326 345.15 122.294C343.874 123.262 342.268 124.076 340.332 124.736C338.44 125.352 336.262 125.66 333.798 125.66ZM326.538 104.87H341.124V104.672C341.124 102.956 340.838 101.46 340.266 100.184C339.694 98.908 338.858 97.896 337.758 97.148C336.658 96.4 335.338 96.026 333.798 96.026C332.258 96.026 330.938 96.4 329.838 97.148C328.738 97.896 327.902 98.908 327.33 100.184C326.802 101.46 326.538 102.956 326.538 104.672V104.87ZM358.69 125C358.25 125 357.876 124.846 357.568 124.538C357.26 124.23 357.106 123.856 357.106 123.416V92.33C357.106 91.846 357.26 91.45 357.568 91.142C357.876 90.834 358.25 90.68 358.69 90.68H364.036C364.476 90.68 364.85 90.834 365.158 91.142C365.51 91.45 365.686 91.846 365.686 92.33V95.036C366.698 93.628 367.996 92.55 369.58 91.802C371.208 91.054 373.078 90.68 375.19 90.68H377.896C378.38 90.68 378.754 90.834 379.018 91.142C379.326 91.45 379.48 91.824 379.48 92.264V97.016C379.48 97.456 379.326 97.83 379.018 98.138C378.754 98.446 378.38 98.6 377.896 98.6H372.748C370.636 98.6 368.986 99.194 367.798 100.382C366.654 101.57 366.082 103.198 366.082 105.266V123.416C366.082 123.856 365.928 124.23 365.62 124.538C365.312 124.846 364.916 125 364.432 125H358.69ZM396.771 125C396.067 125 395.539 124.846 395.187 124.538C394.879 124.186 394.615 123.79 394.395 123.35L382.053 92.726C381.965 92.506 381.921 92.308 381.921 92.132C381.921 91.736 382.053 91.406 382.317 91.142C382.625 90.834 382.977 90.68 383.373 90.68H388.719C389.247 90.68 389.643 90.834 389.907 91.142C390.171 91.406 390.347 91.67 390.435 91.934L399.213 115.1L407.991 91.934C408.079 91.67 408.255 91.406 408.519 91.142C408.783 90.834 409.179 90.68 409.707 90.68H415.119C415.471 90.68 415.779 90.834 416.043 91.142C416.351 91.406 416.505 91.736 416.505 92.132C416.505 92.308 416.483 92.506 416.439 92.726L404.031 123.35C403.855 123.79 403.591 124.186 403.239 124.538C402.887 124.846 402.359 125 401.655 125H396.771ZM424.11 125C423.67 125 423.296 124.846 422.988 124.538C422.68 124.23 422.526 123.856 422.526 123.416V92.264C422.526 91.824 422.68 91.45 422.988 91.142C423.296 90.834 423.67 90.68 424.11 90.68H429.588C430.072 90.68 430.446 90.834 430.71 91.142C431.018 91.45 431.172 91.824 431.172 92.264V123.416C431.172 123.856 431.018 124.23 430.71 124.538C430.446 124.846 430.072 125 429.588 125H424.11ZM423.846 85.004C423.362 85.004 422.966 84.872 422.658 84.608C422.394 84.3 422.262 83.904 422.262 83.42V78.668C422.262 78.228 422.394 77.854 422.658 77.546C422.966 77.238 423.362 77.084 423.846 77.084H429.852C430.336 77.084 430.732 77.238 431.04 77.546C431.348 77.854 431.502 78.228 431.502 78.668V83.42C431.502 83.904 431.348 84.3 431.04 84.608C430.732 84.872 430.336 85.004 429.852 85.004H423.846ZM454.972 125.66C451.804 125.66 449.01 125.066 446.59 123.878C444.214 122.69 442.344 120.974 440.98 118.73C439.66 116.442 438.934 113.692 438.802 110.48C438.758 109.82 438.736 108.962 438.736 107.906C438.736 106.806 438.758 105.904 438.802 105.2C438.934 101.988 439.66 99.26 440.98 97.016C442.344 94.728 444.214 92.99 446.59 91.802C449.01 90.614 451.804 90.02 454.972 90.02C457.788 90.02 460.186 90.416 462.166 91.208C464.146 92 465.774 92.99 467.05 94.178C468.326 95.366 469.272 96.62 469.888 97.94C470.548 99.216 470.9 100.382 470.944 101.438C470.988 101.922 470.834 102.318 470.482 102.626C470.174 102.89 469.8 103.022 469.36 103.022H463.552C463.112 103.022 462.76 102.912 462.496 102.692C462.276 102.472 462.056 102.142 461.836 101.702C461.176 99.942 460.296 98.71 459.196 98.006C458.14 97.258 456.776 96.884 455.104 96.884C452.904 96.884 451.144 97.588 449.824 98.996C448.548 100.36 447.866 102.538 447.778 105.53C447.69 107.202 447.69 108.742 447.778 110.15C447.866 113.186 448.548 115.386 449.824 116.75C451.144 118.114 452.904 118.796 455.104 118.796C456.82 118.796 458.206 118.444 459.262 117.74C460.318 116.992 461.176 115.738 461.836 113.978C462.056 113.538 462.276 113.208 462.496 112.988C462.76 112.768 463.112 112.658 463.552 112.658H469.36C469.8 112.658 470.174 112.812 470.482 113.12C470.834 113.384 470.988 113.758 470.944 114.242C470.9 115.034 470.68 115.936 470.284 116.948C469.932 117.916 469.338 118.928 468.502 119.984C467.71 120.996 466.698 121.942 465.466 122.822C464.234 123.658 462.738 124.34 460.978 124.868C459.262 125.396 457.26 125.66 454.972 125.66ZM492.611 125.66C487.727 125.66 483.855 124.252 480.995 121.436C478.135 118.62 476.595 114.616 476.375 109.424C476.331 108.984 476.309 108.434 476.309 107.774C476.309 107.07 476.331 106.52 476.375 106.124C476.551 102.824 477.299 99.964 478.619 97.544C479.983 95.124 481.853 93.276 484.229 92C486.605 90.68 489.399 90.02 492.611 90.02C496.175 90.02 499.167 90.768 501.587 92.264C504.007 93.716 505.833 95.762 507.065 98.402C508.297 100.998 508.913 104.012 508.913 107.444V108.83C508.913 109.27 508.759 109.644 508.451 109.952C508.143 110.26 507.747 110.414 507.263 110.414H485.351C485.351 110.414 485.351 110.48 485.351 110.612C485.351 110.744 485.351 110.854 485.351 110.942C485.395 112.482 485.681 113.912 486.209 115.232C486.781 116.508 487.595 117.542 488.651 118.334C489.751 119.126 491.049 119.522 492.545 119.522C493.777 119.522 494.811 119.346 495.647 118.994C496.483 118.598 497.165 118.158 497.693 117.674C498.221 117.19 498.595 116.794 498.815 116.486C499.211 115.958 499.519 115.65 499.739 115.562C500.003 115.43 500.377 115.364 500.861 115.364H506.537C506.977 115.364 507.329 115.496 507.593 115.76C507.901 116.024 508.033 116.354 507.989 116.75C507.945 117.454 507.571 118.312 506.867 119.324C506.207 120.336 505.239 121.326 503.963 122.294C502.687 123.262 501.081 124.076 499.145 124.736C497.253 125.352 495.075 125.66 492.611 125.66ZM485.351 104.87H499.937V104.672C499.937 102.956 499.651 101.46 499.079 100.184C498.507 98.908 497.671 97.896 496.571 97.148C495.471 96.4 494.151 96.026 492.611 96.026C491.071 96.026 489.751 96.4 488.651 97.148C487.551 97.896 486.715 98.908 486.143 100.184C485.615 101.46 485.351 102.956 485.351 104.672V104.87Z" fill="#363853"/>
<path d="M361.931 47C361.491 47 361.117 46.846 360.809 46.538C360.501 46.23 360.347 45.856 360.347 45.416V2.45C360.347 1.966 360.501 1.57 360.809 1.262C361.117 0.953997 361.491 0.799997 361.931 0.799997H390.575C391.059 0.799997 391.455 0.953997 391.763 1.262C392.071 1.57 392.225 1.966 392.225 2.45V7.07C392.225 7.554 392.071 7.95 391.763 8.258C391.455 8.522 391.059 8.654 390.575 8.654H369.389V21.194H389.255C389.739 21.194 390.135 21.348 390.443 21.656C390.751 21.964 390.905 22.36 390.905 22.844V27.464C390.905 27.904 390.751 28.278 390.443 28.586C390.135 28.894 389.739 29.048 389.255 29.048H369.389V45.416C369.389 45.856 369.235 46.23 368.927 46.538C368.619 46.846 368.223 47 367.739 47H361.931ZM413.729 47.66C410.209 47.66 407.239 47.044 404.819 45.812C402.443 44.58 400.617 42.842 399.341 40.598C398.109 38.354 397.405 35.736 397.229 32.744C397.185 31.952 397.163 30.984 397.163 29.84C397.163 28.696 397.185 27.728 397.229 26.936C397.405 23.9 398.131 21.282 399.407 19.082C400.727 16.838 402.575 15.1 404.951 13.868C407.371 12.636 410.297 12.02 413.729 12.02C417.161 12.02 420.065 12.636 422.441 13.868C424.861 15.1 426.709 16.838 427.985 19.082C429.305 21.282 430.053 23.9 430.229 26.936C430.273 27.728 430.295 28.696 430.295 29.84C430.295 30.984 430.273 31.952 430.229 32.744C430.053 35.736 429.327 38.354 428.051 40.598C426.819 42.842 424.993 44.58 422.573 45.812C420.197 47.044 417.249 47.66 413.729 47.66ZM413.729 41.126C416.061 41.126 417.865 40.4 419.141 38.948C420.417 37.452 421.121 35.274 421.253 32.414C421.297 31.754 421.319 30.896 421.319 29.84C421.319 28.784 421.297 27.926 421.253 27.266C421.121 24.45 420.417 22.294 419.141 20.798C417.865 19.302 416.061 18.554 413.729 18.554C411.397 18.554 409.593 19.302 408.317 20.798C407.041 22.294 406.337 24.45 406.205 27.266C406.161 27.926 406.139 28.784 406.139 29.84C406.139 30.896 406.161 31.754 406.205 32.414C406.337 35.274 407.041 37.452 408.317 38.948C409.593 40.4 411.397 41.126 413.729 41.126ZM452.788 47.66C449.268 47.66 446.298 47.044 443.878 45.812C441.502 44.58 439.676 42.842 438.4 40.598C437.168 38.354 436.464 35.736 436.288 32.744C436.244 31.952 436.222 30.984 436.222 29.84C436.222 28.696 436.244 27.728 436.288 26.936C436.464 23.9 437.19 21.282 438.466 19.082C439.786 16.838 441.634 15.1 444.01 13.868C446.43 12.636 449.356 12.02 452.788 12.02C456.22 12.02 459.124 12.636 461.5 13.868C463.92 15.1 465.768 16.838 467.044 19.082C468.364 21.282 469.112 23.9 469.288 26.936C469.332 27.728 469.354 28.696 469.354 29.84C469.354 30.984 469.332 31.952 469.288 32.744C469.112 35.736 468.386 38.354 467.11 40.598C465.878 42.842 464.052 44.58 461.632 45.812C459.256 47.044 456.308 47.66 452.788 47.66ZM452.788 41.126C455.12 41.126 456.924 40.4 458.2 38.948C459.476 37.452 460.18 35.274 460.312 32.414C460.356 31.754 460.378 30.896 460.378 29.84C460.378 28.784 460.356 27.926 460.312 27.266C460.18 24.45 459.476 22.294 458.2 20.798C456.924 19.302 455.12 18.554 452.788 18.554C450.456 18.554 448.652 19.302 447.376 20.798C446.1 22.294 445.396 24.45 445.264 27.266C445.22 27.926 445.198 28.784 445.198 29.84C445.198 30.896 445.22 31.754 445.264 32.414C445.396 35.274 446.1 37.452 447.376 38.948C448.652 40.4 450.456 41.126 452.788 41.126ZM489.405 47.66C487.117 47.66 485.093 47.286 483.333 46.538C481.617 45.746 480.187 44.646 479.043 43.238C477.899 41.83 477.019 40.18 476.403 38.288C475.787 36.352 475.435 34.24 475.347 31.952C475.303 31.16 475.281 30.456 475.281 29.84C475.281 29.18 475.303 28.454 475.347 27.662C475.435 25.462 475.765 23.416 476.337 21.524C476.953 19.632 477.833 17.982 478.977 16.574C480.165 15.122 481.617 14 483.333 13.208C485.093 12.416 487.117 12.02 489.405 12.02C491.781 12.02 493.783 12.438 495.411 13.274C497.083 14.066 498.469 15.1 499.569 16.376V1.724C499.569 1.284 499.701 0.909998 499.965 0.601999C500.273 0.293998 500.669 0.139997 501.153 0.139997H506.763C507.203 0.139997 507.577 0.293998 507.885 0.601999C508.193 0.909998 508.347 1.284 508.347 1.724V45.416C508.347 45.856 508.193 46.23 507.885 46.538C507.577 46.846 507.203 47 506.763 47H501.549C501.065 47 500.669 46.846 500.361 46.538C500.097 46.23 499.965 45.856 499.965 45.416V42.974C498.865 44.338 497.457 45.46 495.741 46.34C494.069 47.22 491.957 47.66 489.405 47.66ZM491.847 40.598C493.695 40.598 495.169 40.18 496.269 39.344C497.369 38.508 498.183 37.452 498.711 36.176C499.239 34.856 499.525 33.514 499.569 32.15C499.613 31.358 499.635 30.522 499.635 29.642C499.635 28.718 499.613 27.86 499.569 27.068C499.525 25.748 499.217 24.494 498.645 23.306C498.073 22.074 497.237 21.062 496.137 20.27C495.037 19.478 493.607 19.082 491.847 19.082C489.999 19.082 488.525 19.5 487.425 20.336C486.369 21.128 485.599 22.184 485.115 23.504C484.631 24.824 484.345 26.276 484.257 27.86C484.213 29.18 484.213 30.5 484.257 31.82C484.345 33.404 484.631 34.856 485.115 36.176C485.599 37.496 486.369 38.574 487.425 39.41C488.525 40.202 489.999 40.598 491.847 40.598ZM4.732 125C4.292 125 3.918 124.846 3.61 124.538C3.302 124.23 3.148 123.856 3.148 123.416V80.45C3.148 79.966 3.302 79.57 3.61 79.262C3.918 78.954 4.292 78.8 4.732 78.8H20.836C25.28 78.8 28.932 79.482 31.792 80.846C34.696 82.21 36.874 84.234 38.326 86.918C39.822 89.602 40.592 92.88 40.636 96.752C40.724 98.688 40.768 100.404 40.768 101.9C40.768 103.396 40.724 105.09 40.636 106.982C40.548 111.074 39.8 114.462 38.392 117.146C36.984 119.786 34.85 121.766 31.99 123.086C29.174 124.362 25.566 125 21.166 125H4.732ZM12.322 117.41H20.836C23.3 117.41 25.302 117.058 26.842 116.354C28.382 115.65 29.504 114.528 30.208 112.988C30.956 111.404 31.352 109.336 31.396 106.784C31.44 105.464 31.462 104.32 31.462 103.352C31.506 102.34 31.506 101.35 31.462 100.382C31.462 99.37 31.44 98.226 31.396 96.95C31.308 93.342 30.406 90.68 28.69 88.964C26.974 87.248 24.246 86.39 20.506 86.39H12.322V117.41ZM63.5463 125.66C58.6623 125.66 54.7903 124.252 51.9303 121.436C49.0703 118.62 47.5303 114.616 47.3103 109.424C47.2663 108.984 47.2443 108.434 47.2443 107.774C47.2443 107.07 47.2663 106.52 47.3103 106.124C47.4863 102.824 48.2343 99.964 49.5543 97.544C50.9183 95.124 52.7883 93.276 55.1643 92C57.5403 90.68 60.3343 90.02 63.5463 90.02C67.1103 90.02 70.1023 90.768 72.5223 92.264C74.9423 93.716 76.7683 95.762 78.0003 98.402C79.2323 100.998 79.8483 104.012 79.8483 107.444V108.83C79.8483 109.27 79.6943 109.644 79.3863 109.952C79.0783 110.26 78.6823 110.414 78.1983 110.414H56.2863C56.2863 110.414 56.2863 110.48 56.2863 110.612C56.2863 110.744 56.2863 110.854 56.2863 110.942C56.3303 112.482 56.6163 113.912 57.1443 115.232C57.7163 116.508 58.5303 117.542 59.5863 118.334C60.6863 119.126 61.9843 119.522 63.4803 119.522C64.7123 119.522 65.7463 119.346 66.5823 118.994C67.4183 118.598 68.1003 118.158 68.6283 117.674C69.1563 117.19 69.5303 116.794 69.7503 116.486C70.1463 115.958 70.4543 115.65 70.6743 115.562C70.9383 115.43 71.3123 115.364 71.7963 115.364H77.4723C77.9123 115.364 78.2643 115.496 78.5283 115.76C78.8363 116.024 78.9683 116.354 78.9243 116.75C78.8803 117.454 78.5063 118.312 77.8023 119.324C77.1423 120.336 76.1743 121.326 74.8983 122.294C73.6223 123.262 72.0163 124.076 70.0803 124.736C68.1883 125.352 66.0103 125.66 63.5463 125.66ZM56.2863 104.87H70.8723V104.672C70.8723 102.956 70.5863 101.46 70.0143 100.184C69.4423 98.908 68.6063 97.896 67.5063 97.148C66.4063 96.4 65.0863 96.026 63.5463 96.026C62.0063 96.026 60.6863 96.4 59.5863 97.148C58.4863 97.896 57.6503 98.908 57.0783 100.184C56.5503 101.46 56.2863 102.956 56.2863 104.672V104.87ZM88.504 125C88.064 125 87.69 124.846 87.382 124.538C87.074 124.23 86.92 123.856 86.92 123.416V79.724C86.92 79.284 87.074 78.91 87.382 78.602C87.69 78.294 88.064 78.14 88.504 78.14H93.982C94.422 78.14 94.796 78.294 95.104 78.602C95.412 78.91 95.566 79.284 95.566 79.724V123.416C95.566 123.856 95.412 124.23 95.104 124.538C94.796 124.846 94.422 125 93.982 125H88.504ZM107.323 125C106.883 125 106.509 124.846 106.201 124.538C105.893 124.23 105.739 123.856 105.739 123.416V92.264C105.739 91.824 105.893 91.45 106.201 91.142C106.509 90.834 106.883 90.68 107.323 90.68H112.801C113.285 90.68 113.659 90.834 113.923 91.142C114.231 91.45 114.385 91.824 114.385 92.264V123.416C114.385 123.856 114.231 124.23 113.923 124.538C113.659 124.846 113.285 125 112.801 125H107.323ZM107.059 85.004C106.575 85.004 106.179 84.872 105.871 84.608C105.607 84.3 105.475 83.904 105.475 83.42V78.668C105.475 78.228 105.607 77.854 105.871 77.546C106.179 77.238 106.575 77.084 107.059 77.084H113.065C113.549 77.084 113.945 77.238 114.253 77.546C114.561 77.854 114.715 78.228 114.715 78.668V83.42C114.715 83.904 114.561 84.3 114.253 84.608C113.945 84.872 113.549 85.004 113.065 85.004H107.059ZM135.285 125C134.581 125 134.053 124.846 133.701 124.538C133.393 124.186 133.129 123.79 132.909 123.35L120.567 92.726C120.479 92.506 120.435 92.308 120.435 92.132C120.435 91.736 120.567 91.406 120.831 91.142C121.139 90.834 121.491 90.68 121.887 90.68H127.233C127.761 90.68 128.157 90.834 128.421 91.142C128.685 91.406 128.861 91.67 128.949 91.934L137.727 115.1L146.505 91.934C146.593 91.67 146.769 91.406 147.033 91.142C147.297 90.834 147.693 90.68 148.221 90.68H153.633C153.985 90.68 154.293 90.834 154.557 91.142C154.865 91.406 155.019 91.736 155.019 92.132C155.019 92.308 154.997 92.506 154.953 92.726L142.545 123.35C142.369 123.79 142.105 124.186 141.753 124.538C141.401 124.846 140.873 125 140.169 125H135.285ZM174.599 125.66C169.715 125.66 165.843 124.252 162.983 121.436C160.123 118.62 158.583 114.616 158.363 109.424C158.319 108.984 158.297 108.434 158.297 107.774C158.297 107.07 158.319 106.52 158.363 106.124C158.539 102.824 159.287 99.964 160.607 97.544C161.971 95.124 163.841 93.276 166.217 92C168.593 90.68 171.387 90.02 174.599 90.02C178.163 90.02 181.155 90.768 183.575 92.264C185.995 93.716 187.821 95.762 189.053 98.402C190.285 100.998 190.901 104.012 190.901 107.444V108.83C190.901 109.27 190.747 109.644 190.439 109.952C190.131 110.26 189.735 110.414 189.251 110.414H167.339C167.339 110.414 167.339 110.48 167.339 110.612C167.339 110.744 167.339 110.854 167.339 110.942C167.383 112.482 167.669 113.912 168.197 115.232C168.769 116.508 169.583 117.542 170.639 118.334C171.739 119.126 173.037 119.522 174.533 119.522C175.765 119.522 176.799 119.346 177.635 118.994C178.471 118.598 179.153 118.158 179.681 117.674C180.209 117.19 180.583 116.794 180.803 116.486C181.199 115.958 181.507 115.65 181.727 115.562C181.991 115.43 182.365 115.364 182.849 115.364H188.525C188.965 115.364 189.317 115.496 189.581 115.76C189.889 116.024 190.021 116.354 189.977 116.75C189.933 117.454 189.559 118.312 188.855 119.324C188.195 120.336 187.227 121.326 185.951 122.294C184.675 123.262 183.069 124.076 181.133 124.736C179.241 125.352 177.063 125.66 174.599 125.66ZM167.339 104.87H181.925V104.672C181.925 102.956 181.639 101.46 181.067 100.184C180.495 98.908 179.659 97.896 178.559 97.148C177.459 96.4 176.139 96.026 174.599 96.026C173.059 96.026 171.739 96.4 170.639 97.148C169.539 97.896 168.703 98.908 168.131 100.184C167.603 101.46 167.339 102.956 167.339 104.672V104.87ZM199.491 125C199.051 125 198.677 124.846 198.369 124.538C198.061 124.23 197.907 123.856 197.907 123.416V92.33C197.907 91.846 198.061 91.45 198.369 91.142C198.677 90.834 199.051 90.68 199.491 90.68H204.837C205.277 90.68 205.651 90.834 205.959 91.142C206.311 91.45 206.487 91.846 206.487 92.33V95.036C207.499 93.628 208.797 92.55 210.381 91.802C212.009 91.054 213.879 90.68 215.991 90.68H218.697C219.181 90.68 219.555 90.834 219.819 91.142C220.127 91.45 220.281 91.824 220.281 92.264V97.016C220.281 97.456 220.127 97.83 219.819 98.138C219.555 98.446 219.181 98.6 218.697 98.6H213.549C211.437 98.6 209.787 99.194 208.599 100.382C207.455 101.57 206.883 103.198 206.883 105.266V123.416C206.883 123.856 206.729 124.23 206.421 124.538C206.113 124.846 205.717 125 205.233 125H199.491ZM231.632 137.54C231.28 137.54 230.972 137.408 230.708 137.144C230.444 136.88 230.312 136.572 230.312 136.22C230.312 136.044 230.312 135.868 230.312 135.692C230.356 135.56 230.444 135.384 230.576 135.164L235.724 122.954L223.052 93.056C222.876 92.616 222.788 92.308 222.788 92.132C222.832 91.736 222.986 91.406 223.25 91.142C223.514 90.834 223.844 90.68 224.24 90.68H229.586C230.114 90.68 230.51 90.812 230.774 91.076C231.038 91.34 231.236 91.626 231.368 91.934L240.146 113.516L249.188 91.934C249.32 91.582 249.518 91.296 249.782 91.076C250.046 90.812 250.442 90.68 250.97 90.68H256.25C256.602 90.68 256.91 90.812 257.174 91.076C257.482 91.34 257.636 91.648 257.636 92C257.636 92.264 257.548 92.616 257.372 93.056L238.694 136.286C238.518 136.638 238.298 136.924 238.034 137.144C237.77 137.408 237.374 137.54 236.846 137.54H231.632Z" fill="#FF7A50"/>
</svg>
