<svg width="359" height="33" viewBox="0 0 359 33" fill="none" xmlns="http://www.w3.org/2000/svg">
<path d="M9.216 26C8.976 26 8.772 25.916 8.604 25.748C8.436 25.58 8.352 25.376 8.352 25.136V5.228H1.692C1.452 5.228 1.248 5.144 1.08 4.976C0.912 4.808 0.828 4.604 0.828 4.364V1.7C0.828 1.436 0.9 1.22 1.044 1.052C1.212 0.883999 1.428 0.799998 1.692 0.799998H20.052C20.316 0.799998 20.532 0.883999 20.7 1.052C20.868 1.22 20.952 1.436 20.952 1.7V4.364C20.952 4.604 20.868 4.808 20.7 4.976C20.532 5.144 20.316 5.228 20.052 5.228H13.428V25.136C13.428 25.376 13.344 25.58 13.176 25.748C13.008 25.916 12.792 26 12.528 26H9.216ZM29.1482 26.36C26.3402 26.36 24.1682 25.64 22.6322 24.2C21.0962 22.736 20.2682 20.744 20.1482 18.224L20.1122 16.64L20.1482 15.056C20.2682 12.56 21.1082 10.58 22.6682 9.116C24.2282 7.652 26.3882 6.92 29.1482 6.92C31.9082 6.92 34.0682 7.652 35.6282 9.116C37.1882 10.58 38.0282 12.56 38.1482 15.056C38.1722 15.344 38.1842 15.872 38.1842 16.64C38.1842 17.408 38.1722 17.936 38.1482 18.224C38.0282 20.744 37.2002 22.736 35.6642 24.2C34.1282 25.64 31.9562 26.36 29.1482 26.36ZM29.1482 22.796C30.4202 22.796 31.4042 22.4 32.1002 21.608C32.7962 20.792 33.1802 19.604 33.2522 18.044C33.2762 17.804 33.2882 17.336 33.2882 16.64C33.2882 15.944 33.2762 15.476 33.2522 15.236C33.1802 13.676 32.7962 12.5 32.1002 11.708C31.4042 10.892 30.4202 10.484 29.1482 10.484C27.8762 10.484 26.8922 10.892 26.1962 11.708C25.5002 12.5 25.1162 13.676 25.0442 15.236L25.0082 16.64L25.0442 18.044C25.1162 19.604 25.5002 20.792 26.1962 21.608C26.8922 22.4 27.8762 22.796 29.1482 22.796ZM43.0729 32.84C42.8329 32.84 42.6289 32.756 42.4609 32.588C42.2929 32.444 42.2089 32.24 42.2089 31.976V8.144C42.2089 7.88 42.2929 7.676 42.4609 7.532C42.6289 7.364 42.8329 7.28 43.0729 7.28H45.9169C46.1809 7.28 46.3849 7.364 46.5289 7.532C46.6969 7.676 46.7809 7.88 46.7809 8.144V9.584C48.1249 7.808 50.0449 6.92 52.5409 6.92C54.9649 6.92 56.8249 7.688 58.1209 9.224C59.4169 10.736 60.1129 12.788 60.2089 15.38C60.2329 15.668 60.2449 16.088 60.2449 16.64C60.2449 17.216 60.2329 17.648 60.2089 17.936C60.1129 20.456 59.4169 22.496 58.1209 24.056C56.8249 25.592 54.9649 26.36 52.5409 26.36C50.1169 26.36 48.2689 25.508 46.9969 23.804V31.976C46.9969 32.24 46.9129 32.444 46.7449 32.588C46.6009 32.756 46.3969 32.84 46.1329 32.84H43.0729ZM51.2089 22.508C53.8009 22.508 55.1809 20.912 55.3489 17.72C55.3729 17.48 55.3849 17.12 55.3849 16.64C55.3849 16.16 55.3729 15.8 55.3489 15.56C55.1809 12.368 53.8009 10.772 51.2089 10.772C49.8169 10.772 48.7849 11.216 48.1129 12.104C47.4409 12.992 47.0689 14.084 46.9969 15.38L46.9609 16.748L46.9969 18.152C47.0449 19.352 47.4169 20.384 48.1129 21.248C48.8329 22.088 49.8649 22.508 51.2089 22.508ZM73.8087 26C73.5687 26 73.3647 25.916 73.1967 25.748C73.0287 25.58 72.9447 25.376 72.9447 25.136V1.7C72.9447 1.436 73.0167 1.22 73.1607 1.052C73.3287 0.883999 73.5447 0.799998 73.8087 0.799998H89.4327C89.6967 0.799998 89.9127 0.883999 90.0807 1.052C90.2487 1.22 90.3327 1.436 90.3327 1.7V4.22C90.3327 4.484 90.2487 4.7 90.0807 4.868C89.9127 5.012 89.6967 5.084 89.4327 5.084H77.8767V11.924H88.7127C88.9767 11.924 89.1927 12.008 89.3607 12.176C89.5287 12.344 89.6127 12.56 89.6127 12.824V15.344C89.6127 15.608 89.5287 15.824 89.3607 15.992C89.1927 16.136 88.9767 16.208 88.7127 16.208H77.8767V25.136C77.8767 25.4 77.7927 25.616 77.6247 25.784C77.4567 25.928 77.2407 26 76.9767 26H73.8087ZM102.062 26.36C99.2543 26.36 97.0823 25.64 95.5463 24.2C94.0103 22.736 93.1823 20.744 93.0623 18.224L93.0263 16.64L93.0623 15.056C93.1823 12.56 94.0223 10.58 95.5823 9.116C97.1423 7.652 99.3023 6.92 102.062 6.92C104.822 6.92 106.982 7.652 108.542 9.116C110.102 10.58 110.942 12.56 111.062 15.056C111.086 15.344 111.098 15.872 111.098 16.64C111.098 17.408 111.086 17.936 111.062 18.224C110.942 20.744 110.114 22.736 108.578 24.2C107.042 25.64 104.87 26.36 102.062 26.36ZM102.062 22.796C103.334 22.796 104.318 22.4 105.014 21.608C105.71 20.792 106.094 19.604 106.166 18.044C106.19 17.804 106.202 17.336 106.202 16.64C106.202 15.944 106.19 15.476 106.166 15.236C106.094 13.676 105.71 12.5 105.014 11.708C104.318 10.892 103.334 10.484 102.062 10.484C100.79 10.484 99.8063 10.892 99.1103 11.708C98.4143 12.5 98.0303 13.676 97.9583 15.236L97.9223 16.64L97.9583 18.044C98.0303 19.604 98.4143 20.792 99.1103 21.608C99.8063 22.4 100.79 22.796 102.062 22.796ZM123.367 26.36C120.559 26.36 118.387 25.64 116.851 24.2C115.315 22.736 114.487 20.744 114.367 18.224L114.331 16.64L114.367 15.056C114.487 12.56 115.327 10.58 116.887 9.116C118.447 7.652 120.607 6.92 123.367 6.92C126.127 6.92 128.287 7.652 129.847 9.116C131.407 10.58 132.247 12.56 132.367 15.056C132.391 15.344 132.403 15.872 132.403 16.64C132.403 17.408 132.391 17.936 132.367 18.224C132.247 20.744 131.419 22.736 129.883 24.2C128.347 25.64 126.175 26.36 123.367 26.36ZM123.367 22.796C124.639 22.796 125.623 22.4 126.319 21.608C127.015 20.792 127.399 19.604 127.471 18.044C127.495 17.804 127.507 17.336 127.507 16.64C127.507 15.944 127.495 15.476 127.471 15.236C127.399 13.676 127.015 12.5 126.319 11.708C125.623 10.892 124.639 10.484 123.367 10.484C122.095 10.484 121.111 10.892 120.415 11.708C119.719 12.5 119.335 13.676 119.263 15.236L119.227 16.64L119.263 18.044C119.335 19.604 119.719 20.792 120.415 21.608C121.111 22.4 122.095 22.796 123.367 22.796ZM143.34 26.36C140.916 26.36 139.056 25.58 137.76 24.02C136.464 22.46 135.768 20.384 135.672 17.792L135.636 16.604L135.672 15.452C135.744 12.932 136.428 10.88 137.724 9.296C139.044 7.712 140.916 6.92 143.34 6.92C145.668 6.92 147.516 7.712 148.884 9.296V1.304C148.884 1.04 148.968 0.835999 149.136 0.692C149.304 0.523999 149.508 0.439999 149.748 0.439999H152.808C153.072 0.439999 153.276 0.523999 153.42 0.692C153.588 0.835999 153.672 1.04 153.672 1.304V25.136C153.672 25.376 153.588 25.58 153.42 25.748C153.276 25.916 153.072 26 152.808 26H149.964C149.724 26 149.52 25.916 149.352 25.748C149.184 25.58 149.1 25.376 149.1 25.136V23.804C147.732 25.508 145.812 26.36 143.34 26.36ZM144.672 22.508C146.064 22.508 147.096 22.064 147.768 21.176C148.44 20.288 148.812 19.196 148.884 17.9C148.908 17.612 148.92 17.144 148.92 16.496C148.92 15.872 148.908 15.416 148.884 15.128C148.836 13.928 148.452 12.908 147.732 12.068C147.036 11.204 146.016 10.772 144.672 10.772C142.08 10.772 140.7 12.368 140.532 15.56L140.496 16.64L140.532 17.72C140.7 20.912 142.08 22.508 144.672 22.508Z" fill="#363853"/>
<path d="M167.992 26C167.752 26 167.548 25.916 167.38 25.748C167.212 25.58 167.128 25.376 167.128 25.136V1.7C167.128 1.436 167.2 1.22 167.344 1.052C167.512 0.883999 167.728 0.799998 167.992 0.799998H177.316C180.244 0.799998 182.536 1.484 184.192 2.852C185.872 4.22 186.712 6.164 186.712 8.684C186.712 10.436 186.28 11.912 185.416 13.112C184.576 14.288 183.4 15.14 181.888 15.668L187.144 24.848C187.216 24.992 187.252 25.124 187.252 25.244C187.252 25.46 187.168 25.64 187 25.784C186.856 25.928 186.688 26 186.496 26H183.22C182.836 26 182.536 25.916 182.32 25.748C182.128 25.58 181.948 25.34 181.78 25.028L177.136 16.496H172.132V25.136C172.132 25.376 172.048 25.58 171.88 25.748C171.736 25.916 171.532 26 171.268 26H167.992ZM177.208 12.428C178.648 12.428 179.728 12.104 180.448 11.456C181.192 10.808 181.564 9.872 181.564 8.648C181.564 7.424 181.192 6.476 180.448 5.804C179.728 5.132 178.648 4.796 177.208 4.796H172.132V12.428H177.208ZM198.772 26.36C196.108 26.36 193.984 25.592 192.4 24.056C190.84 22.496 190.012 20.312 189.916 17.504L189.88 16.604L189.916 15.704C190.036 12.968 190.876 10.82 192.436 9.26C194.02 7.7 196.132 6.92 198.772 6.92C201.604 6.92 203.788 7.784 205.324 9.512C206.884 11.24 207.664 13.544 207.664 16.424V17.18C207.664 17.42 207.58 17.624 207.412 17.792C207.244 17.96 207.028 18.044 206.764 18.044H194.812V18.332C194.86 19.652 195.22 20.768 195.892 21.68C196.588 22.568 197.536 23.012 198.736 23.012C200.152 23.012 201.292 22.46 202.156 21.356C202.372 21.092 202.54 20.924 202.66 20.852C202.804 20.78 203.008 20.744 203.272 20.744H206.368C206.584 20.744 206.764 20.816 206.908 20.96C207.076 21.08 207.16 21.236 207.16 21.428C207.16 22.004 206.812 22.688 206.116 23.48C205.444 24.248 204.472 24.92 203.2 25.496C201.928 26.072 200.452 26.36 198.772 26.36ZM202.768 15.02V14.912C202.768 13.496 202.408 12.356 201.688 11.492C200.992 10.628 200.02 10.196 198.772 10.196C197.524 10.196 196.552 10.628 195.856 11.492C195.16 12.356 194.812 13.496 194.812 14.912V15.02H202.768ZM218.577 26.36C216.777 26.36 215.265 26.096 214.041 25.568C212.817 25.016 211.905 24.38 211.305 23.66C210.729 22.916 210.441 22.28 210.441 21.752C210.441 21.512 210.525 21.32 210.693 21.176C210.861 21.032 211.053 20.96 211.269 20.96H214.113C214.329 20.96 214.509 21.044 214.653 21.212C214.749 21.284 215.001 21.5 215.409 21.86C215.817 22.244 216.297 22.544 216.849 22.76C217.401 22.976 218.013 23.084 218.685 23.084C219.645 23.084 220.437 22.892 221.061 22.508C221.685 22.124 221.997 21.596 221.997 20.924C221.997 20.42 221.853 20.012 221.565 19.7C221.301 19.388 220.809 19.112 220.089 18.872C219.369 18.608 218.301 18.332 216.885 18.044C214.845 17.612 213.333 16.952 212.349 16.064C211.389 15.176 210.909 14 210.909 12.536C210.909 11.576 211.197 10.676 211.773 9.836C212.349 8.972 213.201 8.276 214.329 7.748C215.481 7.196 216.849 6.92 218.433 6.92C220.041 6.92 221.433 7.184 222.609 7.712C223.785 8.216 224.673 8.828 225.273 9.548C225.897 10.244 226.209 10.868 226.209 11.42C226.209 11.636 226.125 11.828 225.957 11.996C225.813 12.14 225.633 12.212 225.417 12.212H222.753C222.561 12.212 222.357 12.128 222.141 11.96C221.973 11.84 221.709 11.612 221.349 11.276C220.989 10.94 220.569 10.676 220.089 10.484C219.609 10.292 219.045 10.196 218.397 10.196C217.509 10.196 216.813 10.388 216.309 10.772C215.829 11.156 215.589 11.66 215.589 12.284C215.589 12.74 215.709 13.112 215.949 13.4C216.189 13.688 216.657 13.964 217.353 14.228C218.049 14.492 219.093 14.756 220.485 15.02C222.789 15.476 224.433 16.184 225.417 17.144C226.425 18.104 226.929 19.28 226.929 20.672C226.929 22.352 226.197 23.72 224.733 24.776C223.269 25.832 221.217 26.36 218.577 26.36ZM239.035 26C236.851 26 235.207 25.436 234.103 24.308C233.023 23.156 232.483 21.476 232.483 19.268V11.096H229.639C229.399 11.096 229.195 11.012 229.027 10.844C228.859 10.652 228.775 10.436 228.775 10.196V8.144C228.775 7.904 228.859 7.7 229.027 7.532C229.195 7.364 229.399 7.28 229.639 7.28H232.483V1.304C232.483 1.04 232.567 0.835999 232.735 0.692C232.903 0.523999 233.107 0.439999 233.347 0.439999H236.263C236.527 0.439999 236.731 0.523999 236.875 0.692C237.043 0.835999 237.127 1.04 237.127 1.304V7.28H241.627C241.891 7.28 242.095 7.364 242.239 7.532C242.407 7.676 242.491 7.88 242.491 8.144V10.196C242.491 10.46 242.407 10.676 242.239 10.844C242.071 11.012 241.867 11.096 241.627 11.096H237.127V18.908C237.127 19.94 237.307 20.72 237.667 21.248C238.027 21.776 238.627 22.04 239.467 22.04H241.951C242.191 22.04 242.395 22.124 242.563 22.292C242.731 22.46 242.815 22.664 242.815 22.904V25.136C242.815 25.376 242.731 25.58 242.563 25.748C242.419 25.916 242.215 26 241.951 26H239.035ZM251.445 26.36C250.221 26.36 249.093 26.12 248.061 25.64C247.053 25.136 246.249 24.464 245.649 23.624C245.073 22.784 244.785 21.86 244.785 20.852C244.785 19.22 245.445 17.9 246.765 16.892C248.085 15.884 249.897 15.2 252.201 14.84L257.133 14.12V13.364C257.133 12.308 256.869 11.516 256.341 10.988C255.813 10.46 254.961 10.196 253.785 10.196C252.993 10.196 252.345 10.352 251.841 10.664C251.361 10.952 250.977 11.24 250.689 11.528C250.401 11.84 250.209 12.044 250.113 12.14C250.017 12.428 249.837 12.572 249.573 12.572H246.801C246.585 12.572 246.393 12.5 246.225 12.356C246.081 12.212 246.009 12.02 246.009 11.78C246.033 11.18 246.321 10.496 246.873 9.728C247.449 8.96 248.325 8.3 249.501 7.748C250.677 7.196 252.117 6.92 253.821 6.92C256.653 6.92 258.717 7.556 260.013 8.828C261.309 10.1 261.957 11.768 261.957 13.832V25.136C261.957 25.376 261.873 25.58 261.705 25.748C261.561 25.916 261.357 26 261.093 26H258.177C257.937 26 257.733 25.916 257.565 25.748C257.397 25.58 257.313 25.376 257.313 25.136V23.732C256.785 24.5 256.029 25.136 255.045 25.64C254.085 26.12 252.885 26.36 251.445 26.36ZM252.669 22.94C253.989 22.94 255.069 22.508 255.909 21.644C256.749 20.78 257.169 19.52 257.169 17.864V17.108L253.569 17.684C252.177 17.9 251.121 18.248 250.401 18.728C249.705 19.208 249.357 19.796 249.357 20.492C249.357 21.26 249.681 21.86 250.329 22.292C250.977 22.724 251.757 22.94 252.669 22.94ZM273.523 26.36C271.315 26.36 269.575 25.64 268.303 24.2C267.031 22.736 266.395 20.756 266.395 18.26V8.144C266.395 7.904 266.479 7.7 266.647 7.532C266.815 7.364 267.019 7.28 267.259 7.28H270.427C270.691 7.28 270.895 7.364 271.039 7.532C271.207 7.676 271.291 7.88 271.291 8.144V18.044C271.291 21.02 272.599 22.508 275.215 22.508C276.463 22.508 277.447 22.112 278.167 21.32C278.911 20.528 279.283 19.436 279.283 18.044V8.144C279.283 7.904 279.367 7.7 279.535 7.532C279.703 7.364 279.907 7.28 280.147 7.28H283.315C283.579 7.28 283.783 7.364 283.927 7.532C284.095 7.676 284.179 7.88 284.179 8.144V25.136C284.179 25.376 284.095 25.58 283.927 25.748C283.783 25.916 283.579 26 283.315 26H280.399C280.159 26 279.955 25.916 279.787 25.748C279.619 25.58 279.535 25.376 279.535 25.136V23.66C278.191 25.46 276.187 26.36 273.523 26.36ZM289.799 26C289.559 26 289.355 25.916 289.187 25.748C289.019 25.58 288.935 25.376 288.935 25.136V8.18C288.935 7.94 289.019 7.736 289.187 7.568C289.355 7.376 289.559 7.28 289.799 7.28H292.715C292.979 7.28 293.195 7.364 293.363 7.532C293.531 7.7 293.615 7.916 293.615 8.18V9.656C294.191 8.888 294.911 8.3 295.775 7.892C296.663 7.484 297.671 7.28 298.799 7.28H300.275C300.539 7.28 300.743 7.364 300.887 7.532C301.055 7.676 301.139 7.88 301.139 8.144V10.736C301.139 10.976 301.055 11.18 300.887 11.348C300.743 11.516 300.539 11.6 300.275 11.6H297.467C296.339 11.6 295.451 11.924 294.803 12.572C294.155 13.22 293.831 14.108 293.831 15.236V25.136C293.831 25.376 293.747 25.58 293.579 25.748C293.411 25.916 293.195 26 292.931 26H289.799ZM309.101 26.36C307.877 26.36 306.749 26.12 305.717 25.64C304.709 25.136 303.905 24.464 303.305 23.624C302.729 22.784 302.441 21.86 302.441 20.852C302.441 19.22 303.101 17.9 304.421 16.892C305.741 15.884 307.553 15.2 309.857 14.84L314.789 14.12V13.364C314.789 12.308 314.525 11.516 313.997 10.988C313.469 10.46 312.617 10.196 311.441 10.196C310.649 10.196 310.001 10.352 309.497 10.664C309.017 10.952 308.633 11.24 308.345 11.528C308.057 11.84 307.865 12.044 307.769 12.14C307.673 12.428 307.493 12.572 307.229 12.572H304.457C304.241 12.572 304.049 12.5 303.881 12.356C303.737 12.212 303.665 12.02 303.665 11.78C303.689 11.18 303.977 10.496 304.529 9.728C305.105 8.96 305.981 8.3 307.157 7.748C308.333 7.196 309.773 6.92 311.477 6.92C314.309 6.92 316.373 7.556 317.669 8.828C318.965 10.1 319.613 11.768 319.613 13.832V25.136C319.613 25.376 319.529 25.58 319.361 25.748C319.217 25.916 319.013 26 318.749 26H315.833C315.593 26 315.389 25.916 315.221 25.748C315.053 25.58 314.969 25.376 314.969 25.136V23.732C314.441 24.5 313.685 25.136 312.701 25.64C311.741 26.12 310.541 26.36 309.101 26.36ZM310.325 22.94C311.645 22.94 312.725 22.508 313.565 21.644C314.405 20.78 314.825 19.52 314.825 17.864V17.108L311.225 17.684C309.833 17.9 308.777 18.248 308.057 18.728C307.361 19.208 307.013 19.796 307.013 20.492C307.013 21.26 307.337 21.86 307.985 22.292C308.633 22.724 309.413 22.94 310.325 22.94ZM325.095 26C324.855 26 324.651 25.916 324.483 25.748C324.315 25.58 324.231 25.376 324.231 25.136V8.144C324.231 7.904 324.315 7.7 324.483 7.532C324.651 7.364 324.855 7.28 325.095 7.28H328.047C328.287 7.28 328.491 7.364 328.659 7.532C328.827 7.7 328.911 7.904 328.911 8.144V9.62C330.327 7.82 332.331 6.92 334.923 6.92C337.131 6.92 338.883 7.652 340.179 9.116C341.475 10.556 342.123 12.524 342.123 15.02V25.136C342.123 25.376 342.039 25.58 341.871 25.748C341.727 25.916 341.523 26 341.259 26H338.091C337.851 26 337.647 25.916 337.479 25.748C337.311 25.58 337.227 25.376 337.227 25.136V15.236C337.227 13.82 336.879 12.728 336.183 11.96C335.511 11.168 334.527 10.772 333.231 10.772C331.959 10.772 330.951 11.168 330.207 11.96C329.487 12.752 329.127 13.844 329.127 15.236V25.136C329.127 25.376 329.043 25.58 328.875 25.748C328.731 25.916 328.527 26 328.263 26H325.095ZM354.945 26C352.761 26 351.117 25.436 350.013 24.308C348.933 23.156 348.393 21.476 348.393 19.268V11.096H345.549C345.309 11.096 345.105 11.012 344.937 10.844C344.769 10.652 344.685 10.436 344.685 10.196V8.144C344.685 7.904 344.769 7.7 344.937 7.532C345.105 7.364 345.309 7.28 345.549 7.28H348.393V1.304C348.393 1.04 348.477 0.835999 348.645 0.692C348.813 0.523999 349.017 0.439999 349.257 0.439999H352.173C352.437 0.439999 352.641 0.523999 352.785 0.692C352.953 0.835999 353.037 1.04 353.037 1.304V7.28H357.537C357.801 7.28 358.005 7.364 358.149 7.532C358.317 7.676 358.401 7.88 358.401 8.144V10.196C358.401 10.46 358.317 10.676 358.149 10.844C357.981 11.012 357.777 11.096 357.537 11.096H353.037V18.908C353.037 19.94 353.217 20.72 353.577 21.248C353.937 21.776 354.537 22.04 355.377 22.04H357.861C358.101 22.04 358.305 22.124 358.473 22.292C358.641 22.46 358.725 22.664 358.725 22.904V25.136C358.725 25.376 358.641 25.58 358.473 25.748C358.329 25.916 358.125 26 357.861 26H354.945Z" fill="#FF7A50"/>
</svg>
